<?xml version="1.0" encoding="utf-8"?>
<!-- Generator: Adobe Illustrator 27.5.0, SVG Export Plug-In . SVG Version: 6.00 Build 0)  -->
<svg version="1.1" xmlns="http://www.w3.org/2000/svg" xmlns:xlink="http://www.w3.org/1999/xlink" x="0px" y="0px"
	 viewBox="0 0 500 500" style="enable-background:new 0 0 500 500;" xml:space="preserve">
<g id="BACKGROUND">
	<g>
		<rect style="fill:#BFDEEF;" width="500" height="500"/>
		<polygon style="fill:#578EE3;" points="500,126.45 500,500 0,500 0,280.9 497.06,127.42 497.26,127.29 		"/>
		<path style="opacity:0.2;fill:#26335B;" d="M123.407,341.135c0.054,1.228,0.524,2.455,1.48,3.449
			c0.072,0.09,0.145,0.162,0.235,0.234l2.311,2.112l84.031,76.898c4.532,4.171,10.941,5.598,16.828,3.792l5.417-1.68l197.763-61.082
			l3.576-1.101l1.842-0.56c0.902-0.29,1.661-0.777,2.238-1.391c0.831-0.867,1.336-2.004,1.463-3.178v-0.289h-0.008
			c0.043-1.461-0.471-2.945-1.689-4.081l-91.452-83.688c-1.391-1.265-3.322-1.697-5.128-1.155l-3.539,1.083l-0.054,0.036
			l-206.177,63.664l-0.072,0.036l-5.344,1.644c-0.09,0.018-0.163,0.054-0.235,0.09C124.581,336.801,123.317,338.968,123.407,341.135
			z"/>
		<g>
			<defs>
				<rect id="SVGID_1_" width="500" height="500"/>
			</defs>
			<clipPath id="SVGID_00000160894263019618919830000013090901821203979695_">
				<use xlink:href="#SVGID_1_"  style="overflow:visible;"/>
			</clipPath>
			<g style="clip-path:url(#SVGID_00000160894263019618919830000013090901821203979695_);">
				<text transform="matrix(1.0257 -0.2884 -0.0549 0.9985 340.5938 84.1648)"><tspan x="0" y="0" style="fill:#5274DE; font-family:'Baloo'; font-size:29.142px; letter-spacing:1.877;">010</tspan><tspan x="51.842" y="0" style="fill:none;stroke:#5274DE;stroke-miterlimit:10; font-family:'Baloo'; font-size:29.142px; letter-spacing:1.877;">101</tspan><tspan x="103.684" y="0" style="fill:#5274DE; font-family:'Baloo'; font-size:29.142px; letter-spacing:2.816;">0</tspan><tspan x="122.131" y="0" style="fill:#5274DE; font-family:'Baloo'; font-size:29.142px; letter-spacing:1.877;">10</tspan><tspan x="156.693" y="0" style="fill:none;stroke:#5274DE;stroke-miterlimit:10; font-family:'Baloo'; font-size:29.142px; letter-spacing:1.877;">1</tspan><tspan x="173.973" y="0" style="fill:#5274DE; font-family:'Baloo'; font-size:29.142px; letter-spacing:1.877;">010</tspan></text>
			</g>
			<g style="opacity:0.75;clip-path:url(#SVGID_00000160894263019618919830000013090901821203979695_);">
				<text transform="matrix(1.0257 -0.2884 -0.0549 0.9985 -7.1596 172.496)"><tspan x="0" y="0" style="fill:#FFFFFF; font-family:'Baloo'; font-size:29.2378px; letter-spacing:1.877;">01</tspan><tspan x="34.675" y="0" style="fill:none;stroke:#FFFFFF;stroke-miterlimit:10; font-family:'Baloo'; font-size:29.2378px; letter-spacing:1.877;">010</tspan><tspan x="86.688" y="0" style="fill:#FFFFFF; font-family:'Baloo'; font-size:29.2378px; letter-spacing:1.877;">1</tspan><tspan x="104.025" y="0" style="fill:#FFFFFF; font-family:'Baloo'; font-size:29.2378px; letter-spacing:2.816;">0</tspan></text>
			</g>
			<g style="clip-path:url(#SVGID_00000160894263019618919830000013090901821203979695_);">
				<text transform="matrix(1.0257 -0.2884 -0.0549 0.9985 -7.292 212.5973)"><tspan x="0" y="0" style="fill:#5274DE; font-family:'Baloo'; font-size:24.6433px; letter-spacing:1.877;">01</tspan><tspan x="29.226" y="0" style="fill:none;stroke:#5274DE;stroke-miterlimit:10; font-family:'Baloo'; font-size:24.6433px; letter-spacing:1.877;">010</tspan></text>
			</g>
			<g style="clip-path:url(#SVGID_00000160894263019618919830000013090901821203979695_);">
				<path style="fill:none;stroke:#26335B;stroke-linecap:round;stroke-linejoin:round;stroke-miterlimit:10;" d="M65.697,442.831
					c0,2.175,1.763,3.395,3.937,2.725c2.174-0.67,3.937-2.976,3.937-5.149c0-2.175-1.763-3.395-3.937-2.725
					C67.459,438.352,65.697,440.657,65.697,442.831z"/>
				<polyline style="fill:none;stroke:#26335B;stroke-linecap:round;stroke-linejoin:round;stroke-miterlimit:10;" points="
					65.697,442.974 44.334,449.54 0,463.183 				"/>
			</g>
			<g style="clip-path:url(#SVGID_00000160894263019618919830000013090901821203979695_);">
				<path style="fill:none;stroke:#26335B;stroke-linecap:round;stroke-linejoin:round;stroke-miterlimit:10;" d="M65.697,311.637
					c0,2.174,1.763,3.394,3.937,2.725c2.174-0.67,3.937-2.976,3.937-5.15c0-2.174-1.763-3.393-3.937-2.724
					C67.459,307.156,65.697,309.462,65.697,311.637z"/>
				<polyline style="fill:none;stroke:#26335B;stroke-linecap:round;stroke-linejoin:round;stroke-miterlimit:10;" points="
					65.697,311.779 44.334,318.345 0,331.988 				"/>
			</g>
			<g style="clip-path:url(#SVGID_00000160894263019618919830000013090901821203979695_);">
				<path style="fill:none;stroke:#FFFFFF;stroke-linecap:round;stroke-linejoin:round;stroke-miterlimit:10;" d="M79.625,380.67
					c0,2.636,2.136,4.114,4.772,3.303c2.636-0.813,4.772-3.606,4.772-6.242c0-2.635-2.136-4.113-4.772-3.302
					C81.762,375.24,79.625,378.035,79.625,380.67z"/>
				<polyline style="fill:none;stroke:#FFFFFF;stroke-linecap:round;stroke-linejoin:round;stroke-miterlimit:10;" points="
					79.625,380.843 53.733,388.801 0,405.336 				"/>
			</g>
			<g style="clip-path:url(#SVGID_00000160894263019618919830000013090901821203979695_);">
				<path style="fill:none;stroke:#26335B;stroke-linecap:round;stroke-linejoin:round;stroke-miterlimit:10;" d="M436.273,426.045
					c0-2.109-1.709-3.293-3.819-2.643c-2.108,0.649-3.817,2.886-3.817,4.995c0,2.109,1.709,3.293,3.817,2.643
					C434.564,430.39,436.273,428.153,436.273,426.045z"/>
				<polyline style="fill:none;stroke:#26335B;stroke-linecap:round;stroke-linejoin:round;stroke-miterlimit:10;" points="
					436.273,425.906 456.995,419.536 500,406.304 				"/>
			</g>
			<g style="clip-path:url(#SVGID_00000160894263019618919830000013090901821203979695_);">
				<path style="fill:none;stroke:#FFFFFF;stroke-linecap:round;stroke-linejoin:round;stroke-miterlimit:10;" d="M224.077,454.002
					c0-3.701-3.001-5.778-6.703-4.639c-3.703,1.14-6.703,5.066-6.703,8.768c0,3.702,3,5.779,6.703,4.639
					C221.076,461.629,224.077,457.704,224.077,454.002z"/>
				<polyline style="fill:none;stroke:#FFFFFF;stroke-linecap:round;stroke-linejoin:round;stroke-miterlimit:10;" points="
					224.077,454.002 313.8,426.425 500,369.128 				"/>
			</g>
			<g style="clip-path:url(#SVGID_00000160894263019618919830000013090901821203979695_);">
				<path style="fill:none;stroke:#FFFFFF;stroke-linecap:round;stroke-linejoin:round;stroke-miterlimit:10;" d="M425.73,455.293
					c0-2.458-1.993-3.837-4.451-3.08c-2.458,0.757-4.45,3.363-4.45,5.821c0,2.458,1.992,3.837,4.45,3.08
					C423.737,460.357,425.73,457.751,425.73,455.293z"/>
				<polyline style="fill:none;stroke:#FFFFFF;stroke-linecap:round;stroke-linejoin:round;stroke-miterlimit:10;" points="
					425.73,455.132 449.881,447.709 500,432.286 				"/>
			</g>
			<g style="clip-path:url(#SVGID_00000160894263019618919830000013090901821203979695_);">
				<path style="fill:none;stroke:#FFFFFF;stroke-linecap:round;stroke-linejoin:round;stroke-miterlimit:10;" d="M425.73,198.43
					c0-2.458-1.993-3.837-4.451-3.08c-2.458,0.757-4.45,3.364-4.45,5.822c0,2.458,1.992,3.837,4.45,3.08
					C423.737,203.495,425.73,200.888,425.73,198.43z"/>
				<polyline style="fill:none;stroke:#FFFFFF;stroke-linecap:round;stroke-linejoin:round;stroke-miterlimit:10;" points="
					425.73,198.269 449.881,190.846 500,175.423 				"/>
			</g>
			<g style="opacity:0.5;clip-path:url(#SVGID_00000160894263019618919830000013090901821203979695_);">
				<text transform="matrix(1.0257 -0.2884 -0.0549 0.9985 407.8796 178.7202)"><tspan x="0" y="0" style="fill:none;stroke:#C2E6E0;stroke-miterlimit:10; font-family:'Baloo'; font-size:26.8222px; letter-spacing:1.877;">010</tspan><tspan x="47.716" y="0" style="fill:#C2E6E0; font-family:'Baloo'; font-size:26.8222px; letter-spacing:1.877;">101</tspan><tspan x="95.431" y="0" style="fill:#C2E6E0; font-family:'Baloo'; font-size:26.8222px; letter-spacing:2.816;">0</tspan></text>
			</g>
		</g>
	</g>
	<g>
		<g>
			<path style="fill:#FFFFFF;" d="M198.667,173.874c-1.436,0-2.547-0.904-2.83-2.304l-1.614-8.304
				c-6.135,0.249-11.872-0.77-17.061-3.017l-7.432,6.879c-1.38,1.271-3.384,1.54-4.609,0.608l-5.657-4.304
				c-1.258-0.956-1.464-2.858-0.491-4.52l5.085-8.626c-3.483-4.379-5.86-9.542-7.073-15.355l-8.711,0.457
				c-1.747,0.084-3.074-1.175-3.074-2.951v-8.001c0-1.678,1.197-3.414,2.846-4.126l8.865-3.768c0.011-0.005,0.022-0.011,0.034-0.016
				c1.198-6.457,3.592-12.815,7.117-18.905l-5.044-6.143c-0.994-1.221-0.839-3.191,0.368-4.687l5.658-7.012
				c1.175-1.455,3.12-2.079,4.546-1.45l7.379,3.298c5.237-4.784,11.025-8.567,17.213-11.249c0.002-0.015,0.005-0.03,0.009-0.045
				l1.643-9.241c0.319-1.731,1.763-3.275,3.434-3.675l8.002-1.915c1.766-0.421,3.345,0.535,3.668,2.206l1.625,8.309
				c6.136-0.25,11.874,0.77,17.054,3.011c0.005-0.005,0.011-0.01,0.017-0.015l7.422-6.87c1.378-1.269,3.382-1.541,4.598-0.616
				l5.657,4.304c1.265,0.961,1.476,2.866,0.502,4.528l-5.102,8.649c3.49,4.351,5.873,9.505,7.088,15.333l8.878-0.472
				c1.685,0,2.906,1.243,2.906,2.955v8.002c0,1.691-1.197,3.427-2.849,4.127l-8.896,3.79c-1.203,6.47-3.596,12.827-7.122,18.906
				l5.048,6.147c0.994,1.221,0.842,3.186-0.358,4.673l-5.657,7.012c-0.868,1.075-2.109,1.717-3.319,1.717l0,0
				c-0.441,0-0.857-0.085-1.238-0.253l-7.372-3.298c-5.226,4.775-11.018,8.563-17.224,11.261l-1.66,9.277
				c-0.306,1.727-1.75,3.272-3.434,3.675l-8.002,1.915C199.224,173.839,198.942,173.874,198.667,173.874z M194.646,162.231
				c0.253,0,0.47,0.188,0.502,0.442c0.011,0.082,0.017,0.143,0.031,0.197l1.654,8.502c0.224,1.105,1.242,1.699,2.436,1.413
				l8.002-1.914c1.309-0.313,2.433-1.519,2.671-2.867l1.696-9.515c0.022-0.18,0.138-0.333,0.304-0.405
				c6.3-2.704,12.171-6.546,17.451-11.421c0.165-0.153,0.41-0.178,0.602-0.064c0.05,0.03,0.085,0.055,0.122,0.068l7.491,3.348
				c0.993,0.439,2.466-0.071,3.356-1.173l5.658-7.012c0.9-1.117,1.053-2.544,0.361-3.395l-5.101-6.212
				c-0.052-0.069-0.086-0.109-0.127-0.147c-0.175-0.162-0.214-0.423-0.093-0.629c3.615-6.156,6.049-12.604,7.231-19.163
				c0.033-0.18,0.159-0.328,0.333-0.389l0.266-0.106l8.849-3.771c1.293-0.549,2.232-1.892,2.232-3.194v-8.002
				c0-1.161-0.761-1.941-1.893-1.941l-0.116,0.003l-8.86,0.475c-0.097,0.001-0.167,0.01-0.244,0.021
				c-0.267,0.034-0.512-0.142-0.563-0.405c-1.18-5.972-3.602-11.225-7.2-15.613c-0.145-0.177-0.153-0.429-0.02-0.616
				c0.058-0.082,0.107-0.161,0.155-0.24l5.109-8.663c0.709-1.212,0.608-2.561-0.242-3.207l-5.658-4.304
				c-0.83-0.631-2.276-0.385-3.295,0.554l-7.434,6.88c-0.085,0.073-0.147,0.132-0.209,0.201c-0.148,0.16-0.38,0.21-0.581,0.121
				c-5.24-2.326-11.082-3.364-17.352-3.042c-0.272,0.021-0.499-0.183-0.529-0.449l-0.043-0.254l-1.651-8.445
				c-0.215-1.108-1.229-1.7-2.437-1.414l-8.002,1.915c-1.299,0.311-2.422,1.518-2.671,2.87l-1.646,9.253
				c-0.021,0.102-0.029,0.176-0.039,0.26c-0.02,0.182-0.136,0.34-0.304,0.412c-6.28,2.687-12.148,6.524-17.44,11.408
				c-0.167,0.154-0.419,0.178-0.612,0.058c-0.049-0.031-0.098-0.053-0.154-0.075l-7.458-3.332c-0.993-0.439-2.463,0.068-3.345,1.16
				l-5.659,7.012c-0.907,1.125-1.063,2.558-0.372,3.408l5.101,6.212c0.035,0.04,0.077,0.091,0.128,0.138
				c0.174,0.162,0.212,0.422,0.091,0.627c-3.619,6.172-6.052,12.624-7.231,19.173c-0.032,0.18-0.159,0.328-0.331,0.388
				c-0.086,0.031-0.162,0.057-0.229,0.089l-8.887,3.778c-1.292,0.558-2.232,1.902-2.232,3.194v8.001
				c0,1.161,0.753,1.942,1.873,1.942l0.133-0.004l9.11-0.485c0.263-0.028,0.509,0.143,0.561,0.405
				c1.175,5.953,3.59,11.212,7.179,15.63c0.135,0.167,0.151,0.401,0.039,0.585c-0.002,0.002-0.057,0.09-0.059,0.093
				c-0.031,0.048-0.062,0.097-0.093,0.153l-5.11,8.67c-0.71,1.212-0.614,2.558,0.23,3.199l5.657,4.304
				c0.84,0.64,2.286,0.395,3.308-0.545l7.433-6.881c0.063-0.06,0.131-0.124,0.199-0.198c0.146-0.162,0.38-0.21,0.58-0.122
				c5.251,2.336,11.09,3.369,17.363,3.05C194.628,162.231,194.637,162.231,194.646,162.231z M196.153,147.231
				c-0.52,0-1.036-0.014-1.546-0.042c-2.17-0.106-4.31-0.477-6.356-1.102c-5.357-1.659-9.732-4.996-12.654-9.649
				c-1.116-1.762-2.004-3.689-2.639-5.726c-0.847-2.666-1.277-5.562-1.277-8.605c0-3.032,0.428-6.127,1.272-9.199
				c0.623-2.308,1.503-4.64,2.616-6.931c2.901-5.987,7.229-11.358,12.515-15.532c2.031-1.592,4.155-2.976,6.313-4.116
				c2.864-1.528,5.849-2.67,8.873-3.393c3.032-0.726,6.051-1.015,8.911-0.857c2.173,0.107,4.313,0.478,6.356,1.102
				c5.345,1.661,9.724,4.993,12.664,9.633c1.117,1.783,2.001,3.714,2.629,5.742c0.846,2.675,1.276,5.574,1.276,8.615
				c0,3.038-0.428,6.128-1.271,9.188c-0.635,2.354-1.513,4.69-2.606,6.939c-2.908,5.982-7.24,11.35-12.525,15.524
				c-2.03,1.591-4.154,2.976-6.314,4.115c-2.864,1.528-5.854,2.671-8.884,3.396C201.021,146.93,198.547,147.231,196.153,147.231z
				 M210.64,83.053c-2.318,0-4.718,0.293-7.133,0.871c-2.938,0.703-5.844,1.814-8.633,3.303c-2.107,1.113-4.179,2.463-6.161,4.017
				c-5.166,4.079-9.395,9.327-12.23,15.178c-1.086,2.233-1.944,4.506-2.55,6.754c-0.821,2.987-1.237,5.991-1.237,8.933
				c0,2.939,0.414,5.731,1.23,8.3c0.609,1.955,1.459,3.801,2.528,5.489c2.793,4.447,6.975,7.634,12.095,9.221
				c1.964,0.599,4.02,0.955,6.11,1.058c2.779,0.152,5.68-0.126,8.611-0.828c2.946-0.706,5.855-1.818,8.644-3.306
				c2.108-1.113,4.181-2.464,6.162-4.017c5.166-4.079,9.399-9.325,12.241-15.171c1.065-2.191,1.92-4.467,2.539-6.762
				c0.82-2.975,1.236-5.975,1.236-8.921c0-2.936-0.414-5.733-1.229-8.312c-0.604-1.946-1.451-3.797-2.52-5.504
				c-2.809-4.433-6.995-7.616-12.105-9.204c-1.961-0.6-4.018-0.956-6.11-1.059C211.635,83.066,211.14,83.053,210.64,83.053z"/>
		</g>
		<g>
			<path style="fill:#FFFFFF;" d="M288.27,164.693c-0.935,0-1.689-0.613-1.874-1.526l-0.919-4.728
				c-3.537,0.125-6.848-0.471-9.855-1.751l-4.288,3.968c-0.889,0.817-2.185,0.98-2.987,0.372l-3.339-2.54
				c-0.827-0.629-0.971-1.865-0.343-2.938l2.929-4.969c-1.992-2.543-3.367-5.521-4.089-8.864l-4.963,0.263
				c-0.01,0.001-0.112,0.003-0.12,0.003c-1.108,0-1.913-0.821-1.913-1.953v-4.722c0-1.087,0.742-2.167,1.805-2.626l5.151-2.189
				c0.709-3.752,2.098-7.446,4.132-10.989l-2.886-3.514c-0.648-0.798-0.557-2.071,0.217-3.028l3.339-4.138
				c0.75-0.931,2-1.324,2.928-0.915l4.231,1.891c3.054-2.77,6.42-4.968,10.014-6.54l0.955-5.37c0.206-1.117,1.104-2.076,2.183-2.334
				l4.722-1.13c1.143-0.277,2.207,0.374,2.418,1.465l0.925,4.729c3.53-0.121,6.851,0.471,9.853,1.747l4.29-3.971
				c0.887-0.817,2.186-0.981,2.98-0.376l3.339,2.54c0.831,0.633,0.978,1.871,0.35,2.943l-2.938,4.981
				c1.997,2.526,3.374,5.499,4.098,8.85l4.964-0.267c0.009,0,0.101-0.002,0.109-0.002c1.115,0,1.924,0.821,1.924,1.952v4.722
				c0,1.095-0.743,2.175-1.809,2.627l-5.146,2.193c-0.713,3.76-2.103,7.453-4.135,10.989l2.889,3.516
				c0.648,0.797,0.56,2.066-0.211,3.02l-3.339,4.138c-0.55,0.683-1.343,1.091-2.121,1.091l0,0c-0.289,0-0.563-0.057-0.813-0.167
				l-4.227-1.891c-3.046,2.764-6.414,4.965-10.019,6.546l-0.961,5.366c-0.197,1.113-1.095,2.074-2.184,2.334l-4.721,1.13
				C288.631,164.672,288.447,164.693,288.27,164.693z M285.895,157.407c0.256,0,0.474,0.191,0.503,0.447
				c0.003,0.011,0.018,0.107,0.021,0.119l0.972,4.997c0.108,0.538,0.594,0.815,1.186,0.671l4.722-1.13
				c0.685-0.164,1.296-0.82,1.42-1.525l0.978-5.466c0.03-0.168,0.169-0.476,0.325-0.543c3.696-1.587,7.141-3.841,10.24-6.702
				c0.163-0.152,0.407-0.178,0.602-0.064l4.472,2.005c0.498,0.223,1.267-0.055,1.733-0.633l3.339-4.139
				c0.463-0.574,0.555-1.322,0.214-1.741l-3.01-3.665c-0.175-0.162-0.269-0.49-0.148-0.695c2.122-3.612,3.549-7.395,4.242-11.241
				c0.032-0.18,0.159-0.329,0.333-0.389l0.327,0.414l-0.198-0.467l5.236-2.231c0.679-0.288,1.191-1.016,1.191-1.693v-4.722
				c0-0.569-0.357-0.938-0.91-0.938l-5.286,0.282c-0.059,0.002-0.094,0.006-0.135,0.011c-0.241,0.032-0.505-0.144-0.557-0.406
				c-0.689-3.49-2.104-6.559-4.205-9.122c-0.146-0.178-0.153-0.43-0.021-0.617c0.03-0.042,0.056-0.084,0.082-0.126l3.015-5.111
				c0.364-0.623,0.327-1.306-0.089-1.623l-3.339-2.539c-0.411-0.313-1.152-0.172-1.679,0.314l-4.387,4.061
				c-0.05,0.043-0.081,0.073-0.113,0.108c-0.147,0.16-0.381,0.207-0.579,0.12c-3.061-1.36-6.474-1.967-10.145-1.777
				c-0.302,0.02-0.496-0.181-0.528-0.444l-0.026-0.157l-0.973-4.965c-0.104-0.543-0.586-0.816-1.186-0.672l-4.721,1.13
				c-0.68,0.162-1.291,0.819-1.421,1.529l-0.972,5.459c-0.012,0.058-0.016,0.095-0.021,0.135c-0.018,0.184-0.135,0.343-0.305,0.416
				c-3.684,1.576-7.126,3.828-10.233,6.694c-0.167,0.155-0.417,0.178-0.611,0.058l-4.469-1.998
				c-0.497-0.219-1.264,0.053-1.728,0.625l-3.338,4.139c-0.475,0.587-0.567,1.323-0.221,1.749l3.011,3.665
				c0.175,0.162,0.267,0.483,0.148,0.689c-2.125,3.622-3.552,7.406-4.243,11.247c-0.033,0.18-0.158,0.328-0.33,0.388
				c-0.045,0.016-0.081,0.027-0.114,0.043l-5.255,2.234c-0.677,0.292-1.189,1.021-1.189,1.694v4.722c0,0.57,0.353,0.938,0.898,0.938
				l5.297-0.276c0.27-0.003,0.643,0.147,0.691,0.395c0.688,3.479,2.098,6.552,4.193,9.134c0.136,0.166,0.151,0.399,0.04,0.581
				c-0.003,0.006-0.09,0.147-0.093,0.153l-3.011,5.109c-0.364,0.623-0.33,1.303,0.082,1.617l3.339,2.54
				c0.413,0.314,1.155,0.178,1.685-0.31l4.387-4.06c0.035-0.033,0.07-0.067,0.107-0.106c0.146-0.161,0.379-0.208,0.579-0.121
				c3.07,1.366,6.483,1.975,10.152,1.782C285.879,157.407,285.888,157.407,285.895,157.407z M286.787,148.97
				c-0.311,0-0.62-0.008-0.926-0.025c-1.299-0.064-2.579-0.286-3.801-0.659c-3.209-0.994-5.831-2.993-7.584-5.782
				c-0.666-1.053-1.197-2.207-1.578-3.427c-0.507-1.593-0.763-3.324-0.763-5.141c0-1.808,0.254-3.653,0.757-5.483
				c0.372-1.376,0.897-2.765,1.559-4.126c1.726-3.561,4.299-6.756,7.444-9.239c1.207-0.946,2.471-1.771,3.757-2.45
				c1.706-0.91,3.483-1.589,5.284-2.021c1.809-0.433,3.615-0.606,5.318-0.511c1.298,0.064,2.577,0.286,3.801,0.659
				c3.203,0.995,5.825,2.991,7.589,5.772c0.669,1.069,1.198,2.225,1.574,3.438c0.507,1.599,0.763,3.331,0.763,5.146
				c0,1.81-0.255,3.653-0.758,5.477c-0.378,1.401-0.901,2.792-1.552,4.13c-1.73,3.559-4.307,6.752-7.45,9.234
				c-1.21,0.948-2.474,1.772-3.758,2.45c-1.705,0.91-3.486,1.59-5.291,2.022C289.689,148.79,288.215,148.97,286.787,148.97z
				 M295.335,111.095c-1.353,0-2.753,0.171-4.162,0.509c-1.717,0.411-3.413,1.06-5.045,1.93c-1.235,0.652-2.447,1.443-3.606,2.352
				c-3.023,2.387-5.499,5.459-7.158,8.884c-0.634,1.304-1.136,2.633-1.492,3.95c-0.479,1.746-0.722,3.5-0.722,5.217
				c0,1.712,0.241,3.34,0.716,4.836c0.354,1.139,0.85,2.211,1.47,3.19c1.623,2.583,4.052,4.434,7.023,5.354
				c1.142,0.348,2.338,0.556,3.556,0.616c1.63,0.088,3.313-0.073,5.022-0.483c1.722-0.412,3.421-1.062,5.053-1.932
				c1.231-0.65,2.444-1.441,3.605-2.351c3.023-2.386,5.501-5.458,7.166-8.88c0.622-1.281,1.122-2.612,1.484-3.954
				c0.479-1.739,0.723-3.492,0.723-5.21c0-1.711-0.241-3.34-0.717-4.843c-0.352-1.132-0.844-2.208-1.465-3.201
				c-1.631-2.573-4.062-4.422-7.028-5.344c-1.142-0.348-2.338-0.556-3.555-0.616C295.915,111.103,295.626,111.095,295.335,111.095z"
				/>
		</g>
		
			<path style="fill:none;stroke:#000000;stroke-width:0.8457;stroke-linecap:round;stroke-linejoin:round;stroke-miterlimit:10;" d="
			M212.575,116.934"/>
		<path style="fill:#BDE4E5;" d="M127.814,187.249v104.323c0,0.496,0.033,0.975,0.116,1.422c0.083,0.528,0.231,1.025,0.413,1.487
			c0.281,0.729,0.678,1.372,1.158,1.9l0.479,0.464c0.728,0.645,1.62,1.107,2.628,1.339c0.529,0.132,1.108,0.198,1.703,0.198
			c0.859,0,1.769-0.133,2.711-0.43l0.149-0.05c0.065-0.033,0.132-0.066,0.215-0.083l4.893-1.503l0.066-0.034l188.759-58.285
			l0.051-0.033c4.198-2.149,7.355-6.827,7.355-11.29V122.352c0-1.934-0.595-3.554-1.62-4.712h-0.017c0-0.017,0-0.017-0.016-0.033
			c-0.629-0.711-1.406-1.24-2.298-1.587c-0.694-0.264-1.472-0.43-2.281-0.446c-0.943-0.033-1.935,0.099-2.977,0.413l-192.28,59.228
			C131.93,176.77,127.814,182.175,127.814,187.249z"/>
		<path style="fill:#FFFFFF;" d="M338.51,122.352v104.323c0,2.281-0.827,4.629-2.198,6.645c0.347-1.074,0.546-2.182,0.546-3.272
			V125.724c0-1.934-0.596-3.554-1.621-4.711h-0.017c0-0.017,0-0.017-0.016-0.033c-0.629-0.711-1.405-1.24-2.298-1.587
			c-0.694-0.265-1.472-0.43-2.282-0.447c-0.941-0.033-1.933,0.1-2.975,0.414l-192.281,59.229c-2.811,0.859-5.323,2.893-7.009,5.388
			c1.273-3.95,4.662-7.538,8.662-8.761l192.28-59.228c1.042-0.314,2.033-0.446,2.975-0.413c0.811,0.016,1.588,0.182,2.282,0.446
			c0.892,0.347,1.669,0.877,2.298,1.587c0.016,0.016,0.016,0.016,0.016,0.033h0.017C337.915,118.797,338.51,120.418,338.51,122.352z
			"/>
		<path style="fill:#FAE52A;" d="M230.518,150.932c0,1.46,1.184,2.279,2.643,1.829c1.46-0.45,2.644-1.997,2.644-3.458
			c0-1.46-1.184-2.279-2.644-1.829C231.702,147.924,230.518,149.472,230.518,150.932z"/>
		<path style="fill:none;stroke:#26335B;stroke-linecap:round;stroke-linejoin:round;stroke-miterlimit:10;" d="M230.518,150.932
			c0,1.46,1.184,2.279,2.643,1.829c1.46-0.45,2.644-1.997,2.644-3.458c0-1.46-1.184-2.279-2.644-1.829
			C231.702,147.924,230.518,149.472,230.518,150.932z"/>
		<path style="fill:none;stroke:#271A3D;stroke-linecap:round;stroke-linejoin:round;stroke-miterlimit:10;" d="M127.814,187.249
			v104.323c0,0.496,0.033,0.975,0.116,1.422c0.083,0.528,0.231,1.025,0.413,1.487c0.281,0.729,0.678,1.372,1.158,1.9l0.479,0.464
			c0.728,0.645,1.62,1.107,2.628,1.339c0.529,0.132,1.108,0.198,1.703,0.198c0.859,0,1.769-0.133,2.711-0.43l0.149-0.05
			c0.065-0.033,0.132-0.066,0.215-0.083l4.893-1.503l0.066-0.034l188.759-58.285l0.051-0.033c4.198-2.149,7.355-6.827,7.355-11.29
			V122.352c0-1.934-0.595-3.554-1.62-4.712h-0.017c0-0.017,0-0.017-0.016-0.033c-0.629-0.711-1.406-1.24-2.298-1.587
			c-0.694-0.264-1.472-0.43-2.281-0.446c-0.943-0.033-1.935,0.099-2.977,0.413l-192.28,59.228
			C131.93,176.77,127.814,182.175,127.814,187.249z"/>
		<path style="fill:#5274DE;" d="M141.818,183.098l182.688-56.268c5.085-1.566,9.209,1.287,9.209,6.373v90.291
			c0,5.086-4.124,10.48-9.209,12.046l-182.688,56.268c-5.087,1.566-9.21-1.287-9.21-6.372v-90.291
			C132.608,190.058,136.731,184.664,141.818,183.098z"/>
		<path style="fill:none;stroke:#26335B;stroke-linecap:round;stroke-linejoin:round;stroke-miterlimit:10;" d="M141.818,183.098
			l182.688-56.268c5.085-1.566,9.209,1.287,9.209,6.373v90.291c0,5.086-4.124,10.48-9.209,12.046l-182.688,56.268
			c-5.087,1.566-9.21-1.287-9.21-6.372v-90.291C132.608,190.058,136.731,184.664,141.818,183.098z"/>
		<path style="fill:#FAE52A;" d="M285.658,156.747l36.978-11.389c0.881-0.272,1.482-1.086,1.482-2.009l0,0
			c0-1.414-1.369-2.424-2.72-2.008l-36.978,11.389c-0.883,0.272-1.484,1.086-1.484,2.009l0,0
			C282.938,156.153,284.307,157.163,285.658,156.747z"/>
		<path style="fill:#FAE52A;" d="M285.658,165.143l36.978-11.389c0.881-0.271,1.482-1.086,1.482-2.009l0,0
			c0-1.415-1.369-2.424-2.72-2.009l-36.978,11.39c-0.883,0.271-1.484,1.086-1.484,2.008v0.001
			C282.938,164.549,284.307,165.56,285.658,165.143z"/>
		<path style="fill:#FFFFFF;" d="M306.249,167.197l16.388-5.047c0.881-0.271,1.482-1.086,1.482-2.008l0,0
			c0-1.415-1.369-2.425-2.72-2.009l-16.388,5.047c-0.882,0.271-1.482,1.086-1.482,2.009l0,0
			C303.529,166.603,304.896,167.614,306.249,167.197z"/>
		<path style="fill:#FFFFFF;" d="M306.249,175.594l16.388-5.047c0.881-0.272,1.482-1.086,1.482-2.008l0,0
			c0-1.415-1.369-2.425-2.72-2.009l-16.388,5.047c-0.882,0.272-1.482,1.086-1.482,2.008l0,0
			C303.529,174.999,304.896,176.01,306.249,175.594z"/>
		<path style="fill:#FFFFFF;" d="M306.249,183.99l16.388-5.047c0.881-0.271,1.482-1.086,1.482-2.009l0,0
			c0-1.414-1.369-2.424-2.72-2.008l-16.388,5.047c-0.882,0.271-1.482,1.086-1.482,2.009l0,0
			C303.529,183.395,304.896,184.406,306.249,183.99z"/>
		<path style="fill:#3D72BD;" d="M285.658,173.54l10.59-3.262c0.882-0.271,1.483-1.086,1.483-2.008l0,0
			c0-1.414-1.368-2.425-2.72-2.008l-10.59,3.262c-0.883,0.271-1.484,1.086-1.484,2.008l0,0
			C282.938,172.945,284.307,173.956,285.658,173.54z"/>
		<path style="fill:#3D72BD;" d="M285.658,181.936l10.59-3.262c0.882-0.271,1.483-1.086,1.483-2.008l0,0
			c0-1.414-1.368-2.425-2.72-2.009l-10.59,3.262c-0.883,0.271-1.484,1.086-1.484,2.008l0,0
			C282.938,181.341,284.307,182.352,285.658,181.936z"/>
		<path style="fill:#FFFFFF;" d="M306.249,209.178l16.388-5.047c0.881-0.271,1.482-1.086,1.482-2.008l0,0
			c0-1.415-1.369-2.425-2.72-2.009l-16.388,5.047c-0.882,0.271-1.482,1.086-1.482,2.009l0,0
			C303.529,208.583,304.896,209.594,306.249,209.178z"/>
		<path style="fill:#FFFFFF;" d="M306.249,217.574l16.388-5.047c0.881-0.272,1.482-1.087,1.482-2.008l0,0
			c0-1.415-1.369-2.425-2.72-2.009l-16.388,5.047c-0.882,0.271-1.482,1.087-1.482,2.008l0,0
			C303.529,216.98,304.896,217.99,306.249,217.574z"/>
		<path style="fill:#FFFFFF;" d="M306.249,225.97l16.388-5.047c0.881-0.271,1.482-1.086,1.482-2.009l0,0
			c0-1.414-1.369-2.424-2.72-2.008l-16.388,5.047c-0.882,0.271-1.482,1.087-1.482,2.008l0,0
			C303.529,225.376,304.896,226.387,306.249,225.97z"/>
		<path style="fill:#FAE52A;" d="M285.658,215.52l10.59-3.262c0.882-0.271,1.483-1.086,1.483-2.008l0,0
			c0-1.414-1.368-2.425-2.72-2.008l-10.59,3.262c-0.883,0.271-1.484,1.086-1.484,2.008l0,0
			C282.938,214.926,284.307,215.936,285.658,215.52z"/>
		<path style="fill:#FAE52A;" d="M285.658,223.916l10.59-3.262c0.882-0.271,1.483-1.085,1.483-2.008l0,0
			c0-1.415-1.368-2.425-2.72-2.009l-10.59,3.262c-0.883,0.271-1.484,1.086-1.484,2.008l0,0
			C282.938,223.322,284.307,224.333,285.658,223.916z"/>
		<path style="fill:#E35743;" d="M285.658,198.727l36.978-11.389c0.881-0.272,1.482-1.087,1.482-2.009l0,0
			c0-1.414-1.369-2.424-2.72-2.008l-36.978,11.389c-0.883,0.272-1.484,1.087-1.484,2.009l0,0
			C282.938,198.133,284.307,199.144,285.658,198.727z"/>
		<path style="fill:#E35743;" d="M285.658,207.124l36.978-11.389c0.881-0.271,1.482-1.086,1.482-2.009l0,0
			c0-1.414-1.369-2.425-2.72-2.009l-36.978,11.39c-0.883,0.271-1.484,1.086-1.484,2.008l0,0
			C282.938,206.529,284.307,207.54,285.658,207.124z"/>
		<path style="fill:#E35743;" d="M217.935,177.606l36.979-11.39c0.881-0.271,1.482-1.086,1.482-2.008l0,0
			c0-1.414-1.369-2.425-2.721-2.008l-36.977,11.389c-0.881,0.272-1.483,1.087-1.483,2.009l0,0
			C215.214,177.012,216.583,178.023,217.935,177.606z"/>
		<path style="fill:#E35743;" d="M217.935,186.002l36.979-11.389c0.881-0.271,1.482-1.086,1.482-2.009l0,0
			c0-1.414-1.369-2.424-2.721-2.008l-36.977,11.389c-0.881,0.271-1.483,1.086-1.483,2.009l0,0
			C215.214,185.408,216.583,186.419,217.935,186.002z"/>
		<path style="fill:#FFFFFF;" d="M238.525,188.057l16.388-5.047c0.881-0.271,1.482-1.086,1.482-2.008l0,0
			c0-1.415-1.369-2.425-2.721-2.009l-16.387,5.047c-0.881,0.271-1.483,1.086-1.483,2.009l0,0
			C235.805,187.462,237.174,188.473,238.525,188.057z"/>
		<path style="fill:#FFFFFF;" d="M238.525,196.453l16.388-5.047c0.881-0.271,1.482-1.086,1.482-2.008l0,0
			c0-1.415-1.369-2.425-2.721-2.009l-16.387,5.047c-0.881,0.272-1.483,1.087-1.483,2.009l0,0
			C235.805,195.858,237.174,196.869,238.525,196.453z"/>
		<path style="fill:#FFFFFF;" d="M238.525,204.849l16.388-5.047c0.881-0.271,1.482-1.086,1.482-2.008l0,0
			c0-1.414-1.369-2.425-2.721-2.008l-16.387,5.047c-0.881,0.271-1.483,1.086-1.483,2.008l0,0
			C235.805,204.254,237.174,205.265,238.525,204.849z"/>
		<path style="fill:#FAE52A;" d="M217.935,194.398l10.59-3.262c0.882-0.271,1.483-1.086,1.483-2.009l0,0
			c0-1.414-1.368-2.424-2.72-2.008l-10.59,3.261c-0.881,0.272-1.483,1.086-1.483,2.009l0,0
			C215.214,193.804,216.583,194.814,217.935,194.398z"/>
		<path style="fill:#FAE52A;" d="M217.935,202.794l10.59-3.262c0.882-0.271,1.483-1.086,1.483-2.008l0,0
			c0-1.415-1.368-2.425-2.72-2.009l-10.59,3.262c-0.881,0.271-1.483,1.086-1.483,2.008l0,0
			C215.214,202.2,216.583,203.211,217.935,202.794z"/>
		<path style="fill:#FFFFFF;" d="M238.525,230.037l16.388-5.047c0.881-0.271,1.482-1.086,1.482-2.008l0,0
			c0-1.415-1.369-2.425-2.721-2.009l-16.387,5.047c-0.881,0.271-1.483,1.086-1.483,2.009l0,0
			C235.805,229.442,237.174,230.453,238.525,230.037z"/>
		<path style="fill:#FFFFFF;" d="M238.525,238.433l16.388-5.047c0.881-0.271,1.482-1.086,1.482-2.008l0,0
			c0-1.414-1.369-2.425-2.721-2.009l-16.387,5.047c-0.881,0.272-1.483,1.086-1.483,2.008l0,0
			C235.805,237.839,237.174,238.849,238.525,238.433z"/>
		<path style="fill:#FFFFFF;" d="M238.525,246.829l16.388-5.047c0.881-0.271,1.482-1.086,1.482-2.008l0,0
			c0-1.414-1.369-2.425-2.721-2.008l-16.387,5.047c-0.881,0.271-1.483,1.086-1.483,2.008l0,0
			C235.805,246.235,237.174,247.246,238.525,246.829z"/>
		<path style="fill:#3D72BD;" d="M217.935,236.379l10.59-3.262c0.882-0.271,1.483-1.086,1.483-2.008l0,0
			c0-1.415-1.368-2.425-2.72-2.009l-10.59,3.262c-0.881,0.271-1.483,1.086-1.483,2.009l0,0
			C215.214,235.785,216.583,236.795,217.935,236.379z"/>
		<path style="fill:#3D72BD;" d="M217.935,244.775l10.59-3.262c0.882-0.271,1.483-1.086,1.483-2.008l0,0
			c0-1.415-1.368-2.425-2.72-2.009l-10.59,3.262c-0.881,0.271-1.483,1.086-1.483,2.008l0,0
			C215.214,244.181,216.583,245.191,217.935,244.775z"/>
		<path style="fill:#FAE52A;" d="M217.935,219.587l36.979-11.389c0.881-0.272,1.482-1.087,1.482-2.009l0,0
			c0-1.414-1.369-2.424-2.721-2.008l-36.977,11.389c-0.881,0.271-1.483,1.087-1.483,2.008l0,0
			C215.214,218.993,216.583,220.003,217.935,219.587z"/>
		<path style="fill:#FAE52A;" d="M217.935,227.982l36.979-11.389c0.881-0.271,1.482-1.086,1.482-2.009l0,0
			c0-1.414-1.369-2.424-2.721-2.008l-36.977,11.389c-0.881,0.271-1.483,1.086-1.483,2.009l0,0
			C215.214,227.388,216.583,228.399,217.935,227.982z"/>
		<path style="fill:#4040BB;" d="M133.98,302.631v6.513c0,0.166,0.017,0.331,0.017,0.497c0.116,1.107,0.611,2.214,1.554,3.057
			l79.048,72.338c4.15,3.817,10.018,5.124,15.406,3.471l4.96-1.537l181.057-55.921l4.959-1.522c2.281-0.711,3.521-2.844,3.372-4.959
			l0.017-5.918c-0.116,1.074-0.58,2.115-1.34,2.908c-0.528,0.564-1.223,1.009-2.05,1.273l-1.686,0.513l-3.273,1.009l-181.057,55.921
			l-4.96,1.539c-5.389,1.652-11.257,0.346-15.406-3.472l-76.932-70.403l-2.116-1.935c-0.083-0.066-0.149-0.131-0.215-0.215
			C134.459,304.879,134.029,303.755,133.98,302.631z"/>
		<path style="fill:none;stroke:#26335B;stroke-linecap:round;stroke-linejoin:round;stroke-miterlimit:10;" d="M133.98,302.631
			v6.513c0,0.166,0.017,0.331,0.017,0.497c0.116,1.107,0.611,2.214,1.554,3.057l79.048,72.338c4.15,3.817,10.018,5.124,15.406,3.471
			l4.96-1.537l181.057-55.921l4.959-1.522c2.281-0.711,3.521-2.844,3.372-4.959l0.017-5.918c-0.116,1.074-0.58,2.115-1.34,2.908
			c-0.528,0.564-1.223,1.009-2.05,1.273l-1.686,0.513l-3.273,1.009l-181.057,55.921l-4.96,1.539
			c-5.389,1.652-11.257,0.346-15.406-3.472l-76.932-70.403l-2.116-1.935c-0.083-0.066-0.149-0.131-0.215-0.215
			C134.459,304.879,134.029,303.755,133.98,302.631z"/>
		<path style="fill:#FFFFFF;" d="M151.506,265.235l36.978-11.389c0.881-0.271,1.483-1.087,1.483-2.009l0,0
			c0-1.415-1.369-2.425-2.72-2.009l-36.978,11.389c-0.882,0.271-1.483,1.087-1.483,2.009l0,0
			C148.786,264.641,150.154,265.651,151.506,265.235z"/>
		<path style="fill:#FFFFFF;" d="M151.506,273.631l36.978-11.389c0.881-0.271,1.483-1.087,1.483-2.009l0,0
			c0-1.414-1.369-2.425-2.72-2.009l-36.978,11.39c-0.882,0.271-1.483,1.086-1.483,2.008l0,0
			C148.786,273.037,150.154,274.047,151.506,273.631z"/>
		
			<line style="fill:none;stroke:#FFFFFF;stroke-width:0.8457;stroke-linecap:round;stroke-linejoin:round;stroke-miterlimit:10;" x1="270.098" y1="157.142" x2="270.098" y2="237.105"/>
		<path style="fill:#FFFFFF;" d="M194.051,188.456v28.333l-7.588-3.587c-0.661-0.297-1.438-0.149-1.934,0.397l-7.406,8.232
			c-0.165-0.199-0.364-0.38-0.612-0.496l-14.712-6.927c-0.661-0.314-1.438-0.148-1.934,0.38l-15.158,16.844v-27.986
			c0-4.364,3.521-8.976,7.868-10.315l33.59-10.332C190.513,181.645,194.051,184.092,194.051,188.456z"/>
		<path style="fill:#BDE4E5;" d="M144.706,234.096v12.557c0,4.356,3.526,6.796,7.873,5.458l33.585-10.344
			c4.356-1.342,7.883-5.955,7.883-10.311V218.61l-8.284-3.904l-8.116,9.002l-3.956,4.343l2.118-5.214l-14.711-6.934L144.706,234.096
			z"/>
		<path style="fill:#FAE52A;" d="M167.592,207.705c0,3.367,2.73,5.256,6.098,4.219c3.367-1.037,6.097-4.608,6.097-7.975
			s-2.73-5.256-6.097-4.219C170.322,200.767,167.592,204.337,167.592,207.705z"/>
		<path style="fill:#4040BB;" d="M124.359,183.811v104.322c0,1.984,0.612,3.62,1.686,4.794v0.017l3.456,3.438
			c-0.479-0.528-0.876-1.172-1.158-1.9c-0.182-0.462-0.33-0.959-0.413-1.487c-0.083-0.447-0.116-0.926-0.116-1.422V187.249
			c0-5.075,4.116-10.48,9.207-12.034l192.28-59.228c1.042-0.314,2.033-0.446,2.977-0.413c0.81,0.016,1.587,0.182,2.281,0.446
			c0.892,0.347,1.669,0.877,2.298,1.587l-3.472-3.488l-0.199-0.198c-1.685-1.703-4.347-2.298-7.322-1.389l-192.298,59.228
			C128.492,173.331,124.359,178.72,124.359,183.811z"/>
		<path style="fill:none;stroke:#26335B;stroke-linecap:round;stroke-linejoin:round;stroke-miterlimit:10;" d="M124.359,183.811
			v104.322c0,1.984,0.612,3.62,1.686,4.794v0.017l3.456,3.438c-0.479-0.528-0.876-1.172-1.158-1.9
			c-0.182-0.462-0.33-0.959-0.413-1.487c-0.083-0.447-0.116-0.926-0.116-1.422V187.249c0-5.075,4.116-10.48,9.207-12.034
			l192.28-59.228c1.042-0.314,2.033-0.446,2.977-0.413c0.81,0.016,1.587,0.182,2.281,0.446c0.892,0.347,1.669,0.877,2.298,1.587
			l-3.472-3.488l-0.199-0.198c-1.685-1.703-4.347-2.298-7.322-1.389l-192.298,59.228
			C128.492,173.331,124.359,178.72,124.359,183.811z"/>
		<path style="fill:#BDE4E5;" d="M133.98,302.631c0.049,1.124,0.479,2.248,1.355,3.157c0.066,0.084,0.132,0.148,0.215,0.215
			l2.116,1.935l76.932,70.403c4.15,3.817,10.018,5.124,15.406,3.472l4.96-1.539l181.057-55.921l3.273-1.009l1.686-0.513
			c0.827-0.265,1.522-0.71,2.05-1.273c0.76-0.793,1.224-1.834,1.34-2.908v-0.265h-0.008c0.039-1.338-0.431-2.697-1.547-3.736
			l-83.726-76.618c-1.273-1.157-3.042-1.553-4.695-1.058l-3.239,0.992l-0.051,0.033l-188.759,58.285l-0.066,0.034l-4.893,1.503
			c-0.083,0.017-0.15,0.05-0.215,0.083C135.055,298.664,133.897,300.647,133.98,302.631z"/>
		<path style="fill:#FFFFFF;" d="M424.369,318.252v0.397c-0.116,1.074-0.58,2.115-1.34,2.908c-0.165,0.183-0.348,0.331-0.546,0.48
			v-0.148c0-1.289-0.462-2.595-1.554-3.603l-83.726-76.619c-1.273-1.157-3.042-1.554-4.695-1.058l-3.239,0.992l-0.05,0.033
			l-188.76,58.286l-0.066,0.033l-4.893,1.504c-0.083,0.018-0.149,0.05-0.215,0.083c-0.479,0.166-0.91,0.396-1.289,0.694
			c0.066-1.852,1.19-3.637,3.174-4.331c0.065-0.033,0.132-0.066,0.215-0.083l4.892-1.503l0.066-0.034l188.759-58.285l0.051-0.033
			l3.239-0.992c1.653-0.496,3.422-0.1,4.695,1.058l83.726,76.618C423.905,315.657,424.369,316.964,424.369,318.252z"/>
		<path style="fill:none;stroke:#26335B;stroke-linecap:round;stroke-linejoin:round;stroke-miterlimit:10;" d="M133.98,302.631
			c0.049,1.124,0.479,2.248,1.355,3.157c0.066,0.084,0.132,0.148,0.215,0.215l2.116,1.935l76.932,70.403
			c4.15,3.817,10.018,5.124,15.406,3.472l4.96-1.539l181.057-55.921l3.273-1.009l1.686-0.513c0.827-0.265,1.522-0.71,2.05-1.273
			c0.76-0.793,1.224-1.834,1.34-2.908v-0.265h-0.008c0.039-1.338-0.431-2.697-1.547-3.736l-83.726-76.618
			c-1.273-1.157-3.042-1.553-4.695-1.058l-3.239,0.992l-0.051,0.033l-188.759,58.285l-0.066,0.034l-4.893,1.503
			c-0.083,0.017-0.15,0.05-0.215,0.083C135.055,298.664,133.897,300.647,133.98,302.631z"/>
		<path style="fill:#5274DE;" d="M260.246,331.986c0.015,0.336,0.143,0.672,0.405,0.943c0.02,0.024,0.039,0.044,0.064,0.064
			l0.632,0.578l22.978,21.027c1.239,1.141,2.992,1.53,4.602,1.037l1.481-0.459l54.078-16.703l0.978-0.301l0.503-0.153
			c0.248-0.079,0.455-0.213,0.613-0.38c0.227-0.237,0.364-0.549,0.399-0.869v-0.08h-0.002c0.012-0.398-0.129-0.805-0.462-1.115
			l-25.007-22.885c-0.381-0.345-0.908-0.463-1.403-0.315l-0.967,0.297l-0.016,0.009l-56.378,17.409l-0.02,0.01l-1.462,0.449
			c-0.025,0.005-0.045,0.016-0.065,0.025C260.567,330.801,260.222,331.393,260.246,331.986z"/>
		<path style="fill:none;stroke:#271A3D;stroke-linecap:round;stroke-linejoin:round;stroke-miterlimit:10;" d="M423.01,84.041
			v31.304c0,1.398-0.899,2.879-2.168,3.697l-41.02,12.631c-1.765,0.545-3.199-0.438-3.199-2.204V98.153
			c0-1.422,0.925-2.903,2.204-3.709l40.984-12.619C421.577,81.28,423.01,82.276,423.01,84.041z"/>
		<path style="fill:none;stroke:#26335B;stroke-linecap:round;stroke-linejoin:round;stroke-miterlimit:10;" d="M394.859,142.757
			v31.304c0,1.398-0.9,2.879-2.168,3.697l-41.02,12.63c-1.765,0.545-3.199-0.438-3.199-2.204v-31.316
			c0-1.422,0.924-2.903,2.204-3.708l40.983-12.619C393.427,139.997,394.859,140.992,394.859,142.757z"/>
		<path style="fill:#4040BB;" d="M346.974,336.617v0.149c-0.034,0.33-0.166,0.628-0.397,0.876c-0.149,0.166-0.363,0.297-0.611,0.381
			l-0.496,0.148l-0.976,0.297l-0.314,0.099l-24.003-21.969c-0.38-0.347-0.909-0.462-1.404-0.313l-0.958,0.298l-0.018,0.016
			l-56.087,17.309l-0.363-0.331l-0.629-0.578c-0.033-0.017-0.05-0.05-0.066-0.066c-0.266-0.281-0.397-0.611-0.414-0.942
			c-0.016-0.595,0.331-1.19,0.959-1.422c0.017,0,0.049-0.017,0.066-0.017l1.455-0.446l0.032-0.017l56.368-17.406l0.018-0.017
			l0.976-0.297c0.495-0.149,1.008-0.018,1.388,0.329l25.011,22.878C346.825,335.874,346.974,336.254,346.974,336.617z"/>
		<path style="fill:none;stroke:#26335B;stroke-linecap:round;stroke-linejoin:round;stroke-miterlimit:10;" d="M260.246,331.986
			c0.015,0.336,0.143,0.672,0.405,0.943c0.02,0.024,0.039,0.044,0.064,0.064l0.632,0.578l22.978,21.027
			c1.239,1.141,2.992,1.53,4.602,1.037l1.481-0.459l54.078-16.703l0.978-0.301l0.503-0.153c0.248-0.079,0.455-0.213,0.613-0.38
			c0.227-0.237,0.364-0.549,0.399-0.869v-0.08h-0.002c0.012-0.398-0.129-0.805-0.462-1.115l-25.007-22.885
			c-0.381-0.345-0.908-0.463-1.403-0.315l-0.967,0.297l-0.016,0.009l-56.378,17.409l-0.02,0.01l-1.462,0.449
			c-0.025,0.005-0.045,0.016-0.065,0.025C260.567,330.801,260.222,331.393,260.246,331.986z"/>
		<path style="opacity:0.5;fill:#5C84F0;" d="M419.65,80.681v31.304c0,1.398-0.9,2.879-2.168,3.697l-41.02,12.63
			c-1.766,0.545-3.199-0.438-3.199-2.204V94.793c0-1.422,0.924-2.903,2.204-3.709l40.983-12.618
			C418.217,77.92,419.65,78.915,419.65,80.681z"/>
		<g>
			<path style="fill:#3D72BD;" d="M236.384,273.55c0.002,0.055,0.023,0.109,0.066,0.153c0.003,0.004,0.006,0.007,0.01,0.01
				l0.103,0.095l3.729,3.413c0.201,0.185,0.486,0.247,0.747,0.167l0.241-0.074l8.777-2.711l0.158-0.049l0.083-0.024
				c0.04-0.013,0.074-0.034,0.099-0.063c0.038-0.037,0.059-0.088,0.065-0.141v-0.013l0,0c0.001-0.065-0.021-0.131-0.076-0.182
				l-4.059-3.714c-0.062-0.057-0.147-0.075-0.228-0.052l-0.157,0.049l-0.003,0.002l-9.15,2.825l-0.003,0.002l-0.237,0.073
				c-0.004,0-0.008,0.002-0.011,0.004C236.436,273.357,236.38,273.454,236.384,273.55z"/>
			<path style="fill:#3D72BD;" d="M222.969,277.662c0.002,0.055,0.023,0.109,0.065,0.152c0.003,0.005,0.006,0.008,0.01,0.011
				l0.103,0.095l3.73,3.413c0.201,0.184,0.486,0.247,0.747,0.167l0.241-0.074l8.777-2.711l0.159-0.049l0.081-0.024
				c0.04-0.013,0.074-0.034,0.1-0.063c0.037-0.038,0.059-0.088,0.065-0.141v-0.013h-0.001c0.002-0.065-0.021-0.131-0.075-0.182
				l-4.059-3.714c-0.062-0.057-0.148-0.075-0.228-0.052l-0.157,0.049l-0.002,0.001l-9.15,2.826l-0.003,0.002l-0.237,0.072
				c-0.004,0.001-0.007,0.003-0.01,0.005C223.021,277.47,222.965,277.566,222.969,277.662z"/>
			<path style="fill:#3D72BD;" d="M249.8,269.438c0.002,0.055,0.022,0.109,0.065,0.153c0.003,0.004,0.006,0.007,0.01,0.01
				l0.103,0.095l3.73,3.413c0.201,0.185,0.485,0.248,0.747,0.168l0.24-0.075l8.776-2.711l0.159-0.049l0.082-0.024
				c0.039-0.013,0.073-0.034,0.099-0.063c0.038-0.037,0.06-0.088,0.066-0.141v-0.013h-0.001c0.002-0.065-0.021-0.131-0.074-0.182
				l-4.059-3.714c-0.062-0.056-0.147-0.075-0.228-0.052l-0.157,0.049l-0.003,0.002l-9.15,2.825l-0.003,0.002l-0.238,0.073
				c-0.004,0-0.007,0.002-0.01,0.004C249.852,269.245,249.796,269.342,249.8,269.438z"/>
			<path style="fill:#3D72BD;" d="M263.216,265.325c0.002,0.055,0.022,0.109,0.065,0.153c0.003,0.004,0.006,0.007,0.01,0.01
				l0.103,0.095l3.73,3.413c0.201,0.185,0.485,0.248,0.746,0.168l0.24-0.074l8.777-2.712l0.158-0.048l0.082-0.025
				c0.04-0.013,0.073-0.034,0.1-0.061c0.036-0.038,0.059-0.089,0.066-0.142v-0.013h-0.002c0.003-0.064-0.021-0.131-0.074-0.181
				l-4.059-3.715c-0.063-0.056-0.148-0.075-0.228-0.051l-0.157,0.048l-0.002,0.002l-9.151,2.825l-0.003,0.002l-0.237,0.073
				c-0.004,0.001-0.007,0.002-0.01,0.004C263.267,265.133,263.212,265.229,263.216,265.325z"/>
			<path style="fill:#3D72BD;" d="M276.63,261.213c0.003,0.055,0.023,0.109,0.066,0.153c0.003,0.004,0.006,0.007,0.01,0.011
				l0.104,0.094l3.728,3.413c0.202,0.185,0.486,0.248,0.748,0.168l0.239-0.074l8.777-2.712l0.158-0.048l0.083-0.025
				c0.039-0.013,0.073-0.034,0.099-0.062c0.036-0.038,0.06-0.089,0.065-0.142v-0.013h-0.001c0.002-0.064-0.021-0.131-0.074-0.18
				l-4.059-3.716c-0.063-0.056-0.148-0.075-0.228-0.05l-0.157,0.047l-0.002,0.002l-9.15,2.826l-0.003,0.001l-0.238,0.073
				c-0.004,0.001-0.007,0.002-0.01,0.004C276.683,261.021,276.626,261.117,276.63,261.213z"/>
			<path style="fill:#3D72BD;" d="M290.045,257.101c0.003,0.055,0.024,0.109,0.066,0.153c0.003,0.004,0.006,0.008,0.01,0.011
				l0.103,0.094l3.729,3.413c0.201,0.185,0.486,0.248,0.748,0.168l0.24-0.074l8.776-2.711l0.159-0.049l0.082-0.025
				c0.039-0.013,0.073-0.034,0.099-0.062c0.037-0.038,0.06-0.089,0.065-0.142v-0.013h-0.001c0.002-0.064-0.021-0.131-0.074-0.18
				l-4.059-3.716c-0.063-0.055-0.147-0.075-0.228-0.05l-0.158,0.047l-0.002,0.002l-9.15,2.826l-0.003,0.001l-0.237,0.073
				c-0.004,0.001-0.007,0.002-0.01,0.004C290.098,256.908,290.041,257.005,290.045,257.101z"/>
			<path style="fill:#3D72BD;" d="M303.461,252.989c0.003,0.054,0.023,0.109,0.066,0.152c0.003,0.005,0.006,0.008,0.01,0.011
				l0.103,0.094l3.729,3.413c0.201,0.185,0.486,0.248,0.746,0.168l0.241-0.074l8.777-2.711l0.158-0.049l0.082-0.025
				c0.04-0.013,0.073-0.034,0.1-0.062c0.036-0.038,0.06-0.089,0.065-0.141v-0.014h-0.001c0.002-0.064-0.021-0.131-0.074-0.18
				l-4.06-3.714c-0.063-0.057-0.148-0.075-0.228-0.052l-0.157,0.048l-0.002,0.002l-9.15,2.826l-0.003,0.001l-0.238,0.073
				c-0.004,0.001-0.007,0.002-0.01,0.004C303.514,252.797,303.457,252.893,303.461,252.989z"/>
			<path style="fill:#3D72BD;" d="M316.876,248.877c0.003,0.054,0.023,0.109,0.066,0.152c0.003,0.004,0.006,0.007,0.01,0.011
				l0.104,0.093l3.728,3.413c0.201,0.186,0.486,0.248,0.747,0.168l0.24-0.074l8.777-2.71l0.158-0.05l0.083-0.024
				c0.039-0.013,0.073-0.035,0.099-0.062c0.037-0.038,0.059-0.089,0.065-0.141v-0.013h-0.001c0.002-0.065-0.021-0.13-0.074-0.181
				l-4.059-3.714c-0.063-0.056-0.147-0.075-0.228-0.051l-0.157,0.048l-0.002,0.001l-9.15,2.826l-0.003,0.001l-0.238,0.073
				c-0.004,0.001-0.007,0.003-0.01,0.004C316.929,248.684,316.872,248.78,316.876,248.877z"/>
			<path style="fill:#3D72BD;" d="M209.554,281.774c0.002,0.055,0.023,0.109,0.065,0.152c0.003,0.004,0.007,0.008,0.011,0.011
				l0.102,0.095l3.729,3.412c0.201,0.185,0.485,0.248,0.747,0.168l0.24-0.074l8.777-2.711l0.158-0.049l0.081-0.024
				c0.04-0.013,0.074-0.034,0.1-0.063c0.037-0.038,0.06-0.089,0.065-0.141v-0.013h-0.001c0.002-0.065-0.021-0.131-0.075-0.182
				l-4.059-3.714c-0.062-0.057-0.148-0.075-0.228-0.052l-0.157,0.049l-0.003,0.001l-9.15,2.826l-0.003,0.002l-0.237,0.072
				c-0.004,0.001-0.007,0.003-0.01,0.004C209.606,281.582,209.549,281.679,209.554,281.774z"/>
			<path style="fill:#3D72BD;" d="M196.139,285.887c0.002,0.055,0.023,0.109,0.065,0.152c0.003,0.004,0.006,0.007,0.01,0.011
				l0.103,0.094l3.729,3.413c0.202,0.185,0.486,0.248,0.747,0.168l0.24-0.074l8.777-2.711l0.158-0.05l0.082-0.024
				c0.04-0.013,0.074-0.033,0.1-0.061c0.037-0.038,0.059-0.089,0.064-0.141v-0.013l0,0c0.002-0.065-0.021-0.131-0.075-0.182
				l-4.059-3.714c-0.062-0.057-0.147-0.075-0.228-0.052l-0.157,0.049l-0.003,0.001l-9.151,2.826l-0.003,0.002l-0.237,0.072
				c-0.004,0.001-0.007,0.003-0.01,0.004C196.19,285.694,196.135,285.791,196.139,285.887z"/>
			<path style="fill:#3D72BD;" d="M182.723,289.999c0.002,0.055,0.023,0.108,0.065,0.152c0.003,0.004,0.006,0.007,0.01,0.011
				l0.103,0.094l3.729,3.413c0.201,0.185,0.485,0.248,0.747,0.168l0.24-0.074l8.777-2.711l0.159-0.05l0.082-0.025
				c0.04-0.013,0.074-0.034,0.1-0.062c0.037-0.038,0.059-0.089,0.065-0.141v-0.013l0,0c0.001-0.065-0.021-0.131-0.076-0.182
				l-4.059-3.714c-0.062-0.057-0.147-0.075-0.228-0.052l-0.157,0.049l-0.003,0.001l-9.15,2.826l-0.004,0.002l-0.237,0.072
				c-0.004,0.001-0.007,0.003-0.011,0.004C182.775,289.806,182.719,289.903,182.723,289.999z"/>
			<path style="fill:#3D72BD;" d="M169.308,294.111c0.003,0.055,0.023,0.108,0.066,0.152c0.003,0.004,0.006,0.007,0.01,0.011
				l0.103,0.094l3.729,3.413c0.201,0.184,0.485,0.248,0.747,0.168l0.24-0.074l8.777-2.711l0.159-0.05l0.081-0.024
				c0.04-0.013,0.074-0.035,0.1-0.062c0.037-0.038,0.06-0.089,0.065-0.142v-0.012l0,0c0.001-0.065-0.021-0.131-0.075-0.182
				l-4.059-3.714c-0.061-0.057-0.147-0.075-0.228-0.052l-0.157,0.048l-0.002,0.002l-9.15,2.825l-0.003,0.002l-0.237,0.073
				c-0.004,0.001-0.007,0.003-0.01,0.004C169.36,293.918,169.304,294.015,169.308,294.111z"/>
			<path style="fill:#3D72BD;" d="M155.893,298.223c0.002,0.055,0.023,0.108,0.065,0.153c0.003,0.004,0.007,0.007,0.011,0.011
				l0.102,0.094l3.73,3.412c0.201,0.185,0.485,0.249,0.747,0.169l0.24-0.074l8.777-2.711l0.159-0.05l0.082-0.025
				c0.04-0.013,0.073-0.035,0.099-0.061c0.037-0.039,0.06-0.089,0.065-0.142v-0.012l0,0c0.001-0.065-0.021-0.131-0.075-0.182
				l-4.059-3.714c-0.061-0.057-0.148-0.076-0.228-0.052l-0.156,0.048l-0.003,0.002l-9.151,2.825l-0.004,0.001l-0.237,0.074
				c-0.004,0.001-0.007,0.002-0.01,0.004C155.944,298.03,155.888,298.127,155.893,298.223z"/>
			<path style="fill:#3D72BD;" d="M244.715,281.195c0.003,0.055,0.023,0.108,0.066,0.152c0.003,0.004,0.006,0.008,0.01,0.011
				l0.103,0.094l3.73,3.412c0.201,0.186,0.485,0.249,0.747,0.169l0.24-0.074l8.777-2.711l0.159-0.049l0.082-0.024
				c0.039-0.013,0.073-0.035,0.099-0.063c0.038-0.039,0.06-0.089,0.065-0.141v-0.013h-0.001c0.002-0.065-0.021-0.131-0.074-0.182
				l-4.059-3.714c-0.063-0.057-0.147-0.075-0.227-0.052l-0.158,0.049l-0.002,0.001l-9.15,2.825l-0.003,0.002l-0.237,0.072
				c-0.004,0.001-0.007,0.003-0.011,0.004C244.767,281.003,244.711,281.099,244.715,281.195z"/>
			<path style="fill:#3D72BD;" d="M231.299,285.308c0.003,0.054,0.023,0.108,0.066,0.152c0.003,0.004,0.006,0.008,0.01,0.011
				l0.103,0.093l3.729,3.413c0.201,0.186,0.486,0.249,0.747,0.169l0.24-0.074l8.777-2.711l0.159-0.049l0.081-0.025
				c0.04-0.013,0.074-0.034,0.1-0.061c0.037-0.039,0.059-0.089,0.065-0.141v-0.013h-0.001c0.002-0.065-0.021-0.131-0.075-0.182
				l-4.059-3.714c-0.062-0.057-0.148-0.075-0.228-0.052l-0.157,0.049l-0.002,0.001l-9.15,2.825l-0.003,0.002l-0.237,0.072
				c-0.004,0.001-0.007,0.003-0.011,0.004C231.352,285.115,231.295,285.211,231.299,285.308z"/>
			<path style="fill:#3D72BD;" d="M258.131,277.083c0.002,0.055,0.022,0.108,0.065,0.152c0.003,0.004,0.006,0.008,0.01,0.011
				l0.103,0.094l3.729,3.413c0.202,0.185,0.486,0.248,0.747,0.169l0.24-0.075l8.777-2.711l0.158-0.049l0.082-0.024
				c0.04-0.013,0.073-0.035,0.1-0.063c0.036-0.039,0.06-0.088,0.065-0.141v-0.013h-0.001c0.002-0.065-0.022-0.131-0.074-0.182
				l-4.06-3.714c-0.063-0.057-0.147-0.075-0.227-0.052l-0.157,0.049l-0.002,0.001l-9.15,2.825l-0.003,0.002l-0.238,0.072
				c-0.004,0.001-0.007,0.003-0.01,0.005C258.182,276.891,258.127,276.986,258.131,277.083z"/>
			<path style="fill:#3D72BD;" d="M271.545,272.971c0.003,0.055,0.023,0.108,0.066,0.153c0.003,0.004,0.006,0.007,0.01,0.01
				l0.103,0.094l3.729,3.413c0.202,0.186,0.486,0.248,0.748,0.169l0.239-0.075l8.777-2.711l0.158-0.049l0.083-0.024
				c0.039-0.013,0.073-0.035,0.099-0.063c0.037-0.038,0.06-0.088,0.065-0.141v-0.013h-0.001c0.002-0.065-0.021-0.131-0.074-0.182
				l-4.059-3.714c-0.063-0.056-0.147-0.075-0.229-0.052l-0.157,0.049l-0.002,0.002l-9.15,2.824l-0.003,0.002l-0.237,0.073
				c-0.005,0-0.008,0.002-0.011,0.005C271.598,272.778,271.541,272.874,271.545,272.971z"/>
			<path style="fill:#3D72BD;" d="M284.96,268.858c0.004,0.055,0.024,0.108,0.066,0.153c0.003,0.004,0.007,0.007,0.011,0.01
				l0.103,0.094l3.729,3.413c0.2,0.186,0.486,0.249,0.746,0.169l0.241-0.075l8.777-2.711l0.158-0.049l0.082-0.024
				c0.04-0.013,0.073-0.035,0.099-0.061c0.037-0.039,0.06-0.089,0.065-0.142v-0.013h-0.001c0.002-0.065-0.02-0.131-0.074-0.182
				l-4.059-3.714c-0.063-0.056-0.148-0.075-0.228-0.052l-0.157,0.049l-0.002,0.002l-9.151,2.824l-0.003,0.002l-0.237,0.073
				c-0.004,0-0.007,0.002-0.01,0.005C285.013,268.666,284.956,268.762,284.96,268.858z"/>
			<path style="fill:#3D72BD;" d="M298.376,264.746c0.003,0.055,0.023,0.108,0.066,0.153c0.003,0.004,0.006,0.007,0.01,0.01
				l0.103,0.095l3.729,3.412c0.201,0.186,0.486,0.249,0.747,0.169l0.24-0.075l8.777-2.711l0.158-0.049l0.082-0.024
				c0.04-0.013,0.073-0.035,0.1-0.061c0.036-0.039,0.059-0.089,0.065-0.142v-0.013h-0.001c0.002-0.064-0.022-0.131-0.074-0.182
				l-4.06-3.714c-0.061-0.056-0.147-0.075-0.227-0.051l-0.157,0.048l-0.002,0.002l-9.15,2.825l-0.003,0.001l-0.238,0.074
				c-0.004,0-0.007,0.002-0.01,0.004C298.429,264.554,298.372,264.649,298.376,264.746z"/>
			<path style="fill:#3D72BD;" d="M311.791,260.634c0.003,0.055,0.024,0.108,0.066,0.153c0.003,0.004,0.006,0.007,0.01,0.01
				l0.104,0.095l3.728,3.413c0.201,0.185,0.486,0.248,0.747,0.168l0.24-0.074l8.777-2.712l0.159-0.049l0.082-0.024
				c0.039-0.013,0.073-0.035,0.099-0.062c0.037-0.039,0.06-0.089,0.065-0.142v-0.013h-0.001c0.002-0.064-0.021-0.131-0.075-0.181
				l-4.058-3.715c-0.063-0.056-0.147-0.075-0.228-0.051l-0.158,0.048l-0.002,0.002l-9.15,2.825l-0.003,0.001l-0.237,0.074
				c-0.004,0.001-0.008,0.002-0.011,0.004C311.844,260.441,311.787,260.537,311.791,260.634z"/>
			<path style="fill:#3D72BD;" d="M325.207,256.522c0.003,0.055,0.023,0.108,0.066,0.153c0.003,0.004,0.006,0.007,0.01,0.011
				l0.102,0.094l3.729,3.413c0.201,0.185,0.486,0.248,0.746,0.168l0.241-0.074l8.777-2.711l0.158-0.05l0.082-0.024
				c0.04-0.013,0.073-0.035,0.099-0.061c0.037-0.039,0.06-0.089,0.065-0.142v-0.012h-0.001c0.002-0.065-0.02-0.131-0.075-0.182
				l-4.058-3.715c-0.063-0.056-0.147-0.075-0.228-0.051l-0.157,0.048l-0.002,0.002l-9.151,2.826h-0.003l-0.237,0.074
				c-0.004,0.001-0.007,0.002-0.011,0.004C325.259,256.329,325.203,256.426,325.207,256.522z"/>
			<path style="fill:#3D72BD;" d="M217.884,289.42c0.002,0.054,0.023,0.108,0.066,0.152c0.003,0.004,0.006,0.008,0.01,0.011
				l0.102,0.093l3.73,3.413c0.201,0.186,0.486,0.249,0.747,0.169l0.241-0.074l8.777-2.711l0.159-0.05l0.082-0.025
				c0.04-0.014,0.074-0.034,0.1-0.061c0.037-0.039,0.059-0.089,0.065-0.141v-0.013h-0.001c0.002-0.065-0.021-0.131-0.075-0.182
				l-4.059-3.714c-0.061-0.057-0.147-0.075-0.227-0.052l-0.157,0.049l-0.003,0.001l-9.15,2.825l-0.003,0.002l-0.237,0.072
				c-0.004,0.001-0.007,0.003-0.01,0.004C217.936,289.227,217.88,289.323,217.884,289.42z"/>
			<path style="fill:#3D72BD;" d="M204.469,293.532c0.002,0.054,0.023,0.108,0.065,0.152c0.004,0.004,0.007,0.007,0.011,0.011
				l0.103,0.093l3.73,3.413c0.201,0.185,0.486,0.249,0.747,0.169l0.24-0.074l8.777-2.711l0.158-0.05l0.082-0.024
				c0.04-0.014,0.074-0.035,0.099-0.062c0.037-0.039,0.059-0.09,0.065-0.141v-0.013h0c0.002-0.065-0.021-0.131-0.075-0.182
				l-4.059-3.714c-0.062-0.057-0.148-0.075-0.228-0.052l-0.157,0.048l-0.002,0.002l-9.151,2.825l-0.003,0.001l-0.237,0.073
				c-0.004,0.001-0.007,0.003-0.01,0.004C204.521,293.339,204.464,293.435,204.469,293.532z"/>
			<path style="fill:#3D72BD;" d="M191.053,297.644c0.003,0.054,0.023,0.109,0.066,0.153c0.003,0.004,0.006,0.007,0.01,0.01
				l0.102,0.094l3.73,3.413c0.202,0.185,0.486,0.249,0.747,0.169l0.24-0.074l8.777-2.711l0.159-0.05l0.081-0.025
				c0.04-0.014,0.074-0.035,0.1-0.061c0.037-0.039,0.059-0.09,0.065-0.141v-0.015h-0.001c0.002-0.064-0.021-0.13-0.075-0.18
				l-4.059-3.714c-0.062-0.057-0.148-0.075-0.228-0.052l-0.157,0.048l-0.002,0.002l-9.15,2.825l-0.003,0.001l-0.237,0.073
				c-0.004,0.001-0.008,0.002-0.011,0.004C191.105,297.451,191.049,297.547,191.053,297.644z"/>
			<path style="fill:#3D72BD;" d="M177.638,301.756c0.002,0.054,0.023,0.108,0.065,0.153c0.003,0.004,0.006,0.007,0.01,0.01
				l0.102,0.094l3.73,3.413c0.202,0.185,0.486,0.249,0.748,0.169l0.24-0.075l8.777-2.71l0.159-0.05l0.082-0.024
				c0.04-0.014,0.074-0.035,0.1-0.062c0.037-0.039,0.06-0.09,0.065-0.142v-0.014h0c0.002-0.063-0.021-0.13-0.075-0.18l-4.059-3.715
				c-0.062-0.056-0.147-0.075-0.228-0.051l-0.157,0.048l-0.003,0.002l-9.15,2.825l-0.003,0.001l-0.237,0.073
				c-0.004,0.001-0.007,0.002-0.01,0.004C177.69,301.564,177.634,301.659,177.638,301.756z"/>
			<path style="fill:#3D72BD;" d="M164.223,305.867c0.002,0.055,0.023,0.109,0.065,0.154c0.003,0.004,0.006,0.007,0.011,0.01
				l0.103,0.094l3.729,3.413c0.201,0.186,0.485,0.249,0.747,0.169l0.24-0.075l8.777-2.711l0.158-0.049l0.082-0.024
				c0.041-0.014,0.074-0.035,0.1-0.062c0.037-0.039,0.059-0.09,0.065-0.142v-0.014h-0.001c0.002-0.063-0.021-0.13-0.075-0.18
				l-4.059-3.715c-0.062-0.056-0.148-0.076-0.228-0.051l-0.157,0.048l-0.003,0.002l-9.15,2.825l-0.003,0.001l-0.237,0.073
				c-0.004,0.001-0.007,0.002-0.01,0.004C164.275,305.676,164.219,305.772,164.223,305.867z"/>
			<path style="fill:#3D72BD;" d="M253.045,288.84c0.003,0.055,0.023,0.109,0.066,0.153c0.003,0.004,0.006,0.008,0.01,0.011
				l0.102,0.093l3.73,3.413c0.201,0.186,0.486,0.248,0.747,0.168l0.24-0.074l8.777-2.711l0.158-0.049l0.082-0.025
				c0.04-0.013,0.073-0.033,0.1-0.062c0.036-0.038,0.06-0.089,0.065-0.141v-0.013h-0.001c0.002-0.065-0.022-0.131-0.074-0.181
				l-4.06-3.715c-0.061-0.056-0.147-0.075-0.228-0.051l-0.157,0.048l-0.002,0.001l-9.15,2.826l-0.003,0.002l-0.238,0.072
				c-0.004,0.001-0.007,0.003-0.01,0.004C253.098,288.648,253.041,288.744,253.045,288.84z"/>
			<path style="fill:#3D72BD;" d="M239.63,292.952c0.002,0.055,0.023,0.109,0.066,0.152c0.003,0.005,0.006,0.008,0.01,0.012
				l0.103,0.093l3.729,3.413c0.201,0.185,0.486,0.248,0.747,0.168l0.24-0.074l8.778-2.711l0.158-0.049l0.082-0.025
				c0.04-0.013,0.073-0.034,0.099-0.062c0.037-0.038,0.06-0.089,0.065-0.141v-0.013h-0.001c0.002-0.065-0.021-0.131-0.074-0.181
				l-4.059-3.715c-0.063-0.056-0.147-0.075-0.228-0.051l-0.158,0.047l-0.002,0.002l-9.15,2.826l-0.003,0.002l-0.237,0.072
				c-0.004,0.001-0.007,0.003-0.011,0.004C239.682,292.76,239.626,292.856,239.63,292.952z"/>
			<path style="fill:#3D72BD;" d="M266.46,284.728c0.003,0.055,0.024,0.109,0.066,0.153c0.003,0.004,0.006,0.008,0.01,0.011
				l0.103,0.093l3.729,3.413c0.201,0.186,0.486,0.249,0.747,0.168l0.24-0.074l8.777-2.711l0.159-0.048l0.082-0.026
				c0.039-0.012,0.073-0.033,0.099-0.062c0.037-0.038,0.06-0.089,0.065-0.141v-0.013h-0.001c0.002-0.065-0.02-0.131-0.074-0.181
				l-4.059-3.715c-0.063-0.056-0.148-0.075-0.228-0.051l-0.158,0.048l-0.002,0.001l-9.15,2.826l-0.003,0.002l-0.237,0.072
				c-0.004,0.001-0.008,0.003-0.011,0.004C266.513,284.536,266.456,284.632,266.46,284.728z"/>
			<path style="fill:#3D72BD;" d="M279.876,280.615c0.003,0.055,0.023,0.109,0.066,0.153c0.003,0.005,0.006,0.008,0.01,0.011
				l0.103,0.094l3.729,3.413c0.2,0.185,0.486,0.248,0.746,0.167l0.241-0.074l8.777-2.711l0.158-0.048l0.082-0.025
				c0.04-0.013,0.073-0.034,0.1-0.061c0.036-0.039,0.059-0.09,0.064-0.141v-0.014h-0.001c0.002-0.065-0.021-0.131-0.074-0.181
				l-4.06-3.714c-0.062-0.057-0.147-0.076-0.227-0.052l-0.157,0.048l-0.002,0.001l-9.151,2.826l-0.003,0.002l-0.237,0.072
				c-0.004,0.001-0.007,0.003-0.01,0.004C279.928,280.424,279.871,280.52,279.876,280.615z"/>
			<path style="fill:#3D72BD;" d="M293.291,276.503c0.003,0.055,0.023,0.109,0.066,0.153c0.003,0.005,0.006,0.008,0.01,0.011
				l0.104,0.094l3.728,3.413c0.201,0.186,0.486,0.248,0.747,0.167l0.24-0.074l8.777-2.71l0.158-0.049l0.082-0.025
				c0.04-0.013,0.073-0.034,0.1-0.061c0.036-0.038,0.06-0.089,0.065-0.141v-0.014h-0.001c0.002-0.065-0.021-0.13-0.074-0.181
				l-4.06-3.714c-0.061-0.057-0.147-0.076-0.228-0.052l-0.157,0.048l-0.002,0.001l-9.15,2.826l-0.004,0.002l-0.237,0.073
				c-0.004,0-0.007,0.002-0.011,0.004C293.344,276.311,293.287,276.407,293.291,276.503z"/>
			<path style="fill:#3D72BD;" d="M306.706,272.391c0.003,0.055,0.024,0.109,0.066,0.154c0.003,0.004,0.006,0.007,0.01,0.01
				l0.103,0.094l3.729,3.413c0.201,0.186,0.485,0.248,0.747,0.169l0.24-0.076l8.777-2.71l0.159-0.049l0.082-0.024
				c0.039-0.014,0.073-0.035,0.099-0.063c0.037-0.038,0.06-0.089,0.065-0.141v-0.014h-0.001c0.002-0.064-0.021-0.13-0.075-0.181
				l-4.059-3.714c-0.061-0.056-0.146-0.076-0.227-0.052l-0.158,0.048l-0.002,0.003l-9.15,2.824l-0.004,0.002l-0.236,0.073
				c-0.004,0-0.007,0.002-0.011,0.004C306.759,272.199,306.702,272.295,306.706,272.391z"/>
			<path style="fill:#3D72BD;" d="M320.122,268.279c0.003,0.054,0.023,0.108,0.066,0.153c0.003,0.004,0.006,0.007,0.01,0.01
				l0.103,0.094l3.729,3.413c0.201,0.186,0.485,0.249,0.746,0.169l0.241-0.076l8.777-2.71l0.158-0.049l0.082-0.024
				c0.04-0.014,0.073-0.035,0.1-0.061c0.036-0.039,0.059-0.09,0.065-0.142v-0.014h-0.001c0.002-0.064-0.022-0.13-0.076-0.181
				l-4.059-3.714c-0.062-0.056-0.146-0.075-0.227-0.052l-0.157,0.049l-0.002,0.002l-9.151,2.824l-0.004,0.002l-0.236,0.073
				c-0.004,0.001-0.007,0.002-0.011,0.004C320.174,268.087,320.118,268.183,320.122,268.279z"/>
			<path style="fill:#3D72BD;" d="M333.537,264.167c0.003,0.054,0.023,0.108,0.066,0.153c0.003,0.004,0.006,0.007,0.01,0.01
				l0.104,0.094l3.728,3.413c0.201,0.186,0.485,0.249,0.747,0.169l0.24-0.074l8.777-2.712l0.158-0.049l0.083-0.024
				c0.039-0.014,0.073-0.035,0.099-0.062c0.036-0.039,0.06-0.09,0.065-0.142v-0.014l0,0c0.002-0.063-0.021-0.13-0.075-0.181
				l-4.059-3.714c-0.062-0.056-0.146-0.075-0.228-0.051l-0.157,0.048l-0.002,0.002l-9.15,2.825l-0.004,0.001l-0.237,0.073
				c-0.004,0.001-0.007,0.002-0.011,0.004C333.59,263.975,333.533,264.07,333.537,264.167z"/>
			<path style="fill:#3D72BD;" d="M226.214,297.064c0.002,0.056,0.023,0.109,0.066,0.153c0.003,0.004,0.006,0.008,0.01,0.012
				l0.103,0.093l3.729,3.413c0.201,0.185,0.486,0.248,0.747,0.168l0.241-0.074l8.776-2.711l0.159-0.049l0.082-0.025
				c0.04-0.013,0.074-0.034,0.099-0.062c0.037-0.038,0.059-0.089,0.065-0.142v-0.012h-0.001c0.002-0.065-0.021-0.131-0.075-0.181
				l-4.059-3.715c-0.061-0.056-0.147-0.075-0.227-0.051l-0.157,0.047l-0.002,0.002l-9.15,2.826l-0.003,0.001l-0.237,0.073
				c-0.004,0.001-0.007,0.002-0.01,0.004C226.267,296.871,226.21,296.968,226.214,297.064z"/>
			<path style="fill:#3D72BD;" d="M212.799,301.176c0.003,0.055,0.023,0.109,0.066,0.153c0.003,0.004,0.007,0.007,0.011,0.012
				l0.103,0.093l3.729,3.413c0.201,0.185,0.486,0.248,0.747,0.168l0.241-0.074l8.777-2.711l0.158-0.049l0.081-0.025
				c0.041-0.013,0.074-0.034,0.1-0.061c0.037-0.038,0.059-0.089,0.065-0.142v-0.012h0c0.002-0.065-0.021-0.131-0.075-0.181
				l-4.058-3.715c-0.062-0.057-0.148-0.076-0.228-0.051l-0.157,0.047l-0.002,0.002l-9.151,2.826l-0.003,0.001l-0.237,0.073
				c-0.004,0.001-0.007,0.002-0.01,0.004C212.851,300.983,212.795,301.08,212.799,301.176z"/>
			<path style="fill:#3D72BD;" d="M199.384,305.288c0.002,0.055,0.023,0.109,0.066,0.153c0.003,0.004,0.006,0.007,0.01,0.011
				l0.102,0.094l3.73,3.413c0.201,0.185,0.486,0.248,0.747,0.168l0.241-0.074l8.777-2.712l0.158-0.048l0.082-0.025
				c0.04-0.013,0.074-0.034,0.1-0.062c0.037-0.038,0.059-0.089,0.064-0.142v-0.013h-0.001c0.003-0.064-0.02-0.131-0.075-0.18
				l-4.059-3.716c-0.062-0.056-0.147-0.075-0.228-0.05l-0.157,0.047l-0.003,0.002l-9.151,2.826l-0.003,0.001l-0.237,0.073
				c-0.004,0.001-0.007,0.002-0.01,0.004C199.436,305.096,199.38,305.192,199.384,305.288z"/>
			<path style="fill:#3D72BD;" d="M185.968,309.4c0.002,0.055,0.023,0.109,0.066,0.153c0.003,0.004,0.006,0.007,0.01,0.011
				l0.103,0.094l3.729,3.413c0.201,0.185,0.486,0.248,0.747,0.168l0.241-0.075l8.777-2.711l0.159-0.048l0.081-0.025
				c0.04-0.013,0.074-0.034,0.1-0.062c0.037-0.038,0.059-0.089,0.065-0.142v-0.013h-0.001c0.002-0.064-0.021-0.131-0.075-0.182
				l-4.059-3.714c-0.062-0.056-0.147-0.075-0.227-0.05l-0.157,0.047l-0.002,0.002l-9.15,2.826l-0.003,0.001l-0.237,0.073
				c-0.004,0.001-0.007,0.002-0.011,0.004C186.02,309.208,185.964,309.305,185.968,309.4z"/>
			<path style="fill:#3D72BD;" d="M172.553,313.513c0.003,0.055,0.023,0.109,0.066,0.153c0.003,0.004,0.006,0.007,0.01,0.01
				l0.102,0.095l3.73,3.413c0.202,0.185,0.486,0.248,0.748,0.168l0.24-0.075l8.777-2.711l0.159-0.048l0.081-0.025
				c0.04-0.013,0.074-0.034,0.1-0.061c0.037-0.038,0.06-0.089,0.065-0.142v-0.013h0c0.002-0.064-0.021-0.131-0.075-0.182
				l-4.059-3.714c-0.062-0.056-0.148-0.075-0.228-0.052l-0.157,0.049l-0.002,0.002l-9.15,2.825l-0.003,0.002l-0.237,0.073
				c-0.004,0-0.007,0.002-0.01,0.004C172.605,313.32,172.549,313.417,172.553,313.513z"/>
			<path style="fill:#3D72BD;" d="M261.375,296.485c0.003,0.055,0.024,0.109,0.066,0.152c0.003,0.004,0.006,0.007,0.01,0.011
				l0.103,0.094l3.729,3.413c0.201,0.185,0.486,0.248,0.747,0.168l0.241-0.074l8.776-2.711l0.159-0.05l0.082-0.024
				c0.039-0.013,0.073-0.034,0.099-0.062c0.037-0.038,0.06-0.089,0.065-0.141v-0.013h-0.001c0.002-0.065-0.021-0.131-0.074-0.182
				l-4.059-3.714c-0.063-0.057-0.147-0.075-0.227-0.052l-0.158,0.048l-0.002,0.002l-9.15,2.826l-0.003,0.001l-0.237,0.073
				c-0.004,0.001-0.007,0.003-0.01,0.004C261.428,296.292,261.371,296.389,261.375,296.485z"/>
			<path style="fill:#3D72BD;" d="M247.96,300.597c0.003,0.055,0.023,0.109,0.066,0.153c0.003,0.004,0.006,0.007,0.01,0.01
				l0.103,0.095l3.729,3.413c0.201,0.184,0.486,0.248,0.747,0.168l0.24-0.074l8.777-2.711l0.158-0.05l0.082-0.024
				c0.04-0.013,0.073-0.035,0.1-0.062c0.036-0.038,0.06-0.089,0.065-0.141v-0.014h-0.001c0.002-0.065-0.021-0.131-0.074-0.181
				l-4.059-3.714c-0.063-0.057-0.148-0.076-0.229-0.052l-0.157,0.048l-0.002,0.002l-9.15,2.825l-0.003,0.002l-0.237,0.073
				c-0.004,0.001-0.007,0.002-0.01,0.004C248.012,300.404,247.956,300.501,247.96,300.597z"/>
			<path style="fill:#3D72BD;" d="M274.791,292.373c0.003,0.055,0.023,0.109,0.066,0.152c0.003,0.004,0.006,0.008,0.01,0.011
				l0.103,0.094l3.729,3.413c0.201,0.185,0.486,0.248,0.746,0.168l0.241-0.074l8.777-2.711l0.158-0.05l0.082-0.024
				c0.04-0.013,0.073-0.033,0.1-0.062c0.036-0.038,0.059-0.089,0.065-0.141v-0.013h-0.002c0.003-0.065-0.021-0.131-0.075-0.182
				l-4.059-3.714c-0.062-0.057-0.147-0.075-0.227-0.052l-0.157,0.048l-0.002,0.002l-9.151,2.826l-0.004,0.002l-0.236,0.072
				c-0.004,0.001-0.007,0.003-0.01,0.004C274.843,292.18,274.787,292.277,274.791,292.373z"/>
			<path style="fill:#3D72BD;" d="M288.206,288.261c0.003,0.055,0.023,0.109,0.066,0.152c0.003,0.004,0.006,0.008,0.01,0.011
				l0.103,0.094l3.729,3.413c0.201,0.185,0.485,0.248,0.747,0.168l0.24-0.074l8.777-2.711l0.158-0.049l0.083-0.025
				c0.039-0.013,0.073-0.033,0.099-0.062c0.036-0.038,0.06-0.089,0.065-0.141v-0.013h-0.001c0.002-0.065-0.021-0.131-0.074-0.182
				l-4.06-3.714c-0.061-0.057-0.147-0.075-0.228-0.052l-0.157,0.049l-0.002,0.001l-9.15,2.826l-0.004,0.002l-0.237,0.072
				c-0.004,0.001-0.007,0.003-0.011,0.004C288.259,288.068,288.202,288.165,288.206,288.261z"/>
			<path style="fill:#3D72BD;" d="M301.621,284.148c0.003,0.055,0.024,0.109,0.066,0.152c0.003,0.004,0.006,0.008,0.01,0.011
				l0.103,0.095l3.729,3.412c0.201,0.185,0.485,0.248,0.747,0.168l0.241-0.074l8.776-2.711l0.159-0.049l0.082-0.024
				c0.039-0.013,0.073-0.034,0.099-0.063c0.037-0.038,0.06-0.089,0.064-0.141v-0.013l0,0c0.002-0.065-0.021-0.131-0.075-0.182
				l-4.059-3.714c-0.062-0.057-0.147-0.075-0.227-0.052l-0.158,0.049l-0.002,0.001l-9.15,2.826l-0.004,0.002l-0.236,0.072
				c-0.004,0.001-0.007,0.003-0.011,0.004C301.674,283.956,301.617,284.053,301.621,284.148z"/>
			<path style="fill:#3D72BD;" d="M315.037,280.036c0.003,0.055,0.023,0.109,0.065,0.152c0.004,0.004,0.007,0.008,0.011,0.011
				l0.103,0.095l3.729,3.413c0.201,0.184,0.485,0.247,0.746,0.167l0.241-0.074l8.777-2.711l0.158-0.048l0.082-0.025
				c0.04-0.013,0.073-0.034,0.1-0.063c0.036-0.038,0.06-0.089,0.065-0.141V280.8l0,0c0.002-0.064-0.022-0.131-0.075-0.182
				l-4.06-3.714c-0.061-0.057-0.147-0.075-0.227-0.052l-0.157,0.049l-0.002,0.001l-9.15,2.826l-0.004,0.002l-0.237,0.072
				c-0.004,0.001-0.007,0.003-0.011,0.005C315.09,279.844,315.033,279.94,315.037,280.036z"/>
			<path style="fill:#3D72BD;" d="M346.759,275.571l-0.232,0.082c-0.032,0-0.066,0.017-0.099,0.017L346.759,275.571z"/>
			<path style="fill:#3D72BD;" d="M234.545,304.709c0.003,0.055,0.023,0.108,0.066,0.153c0.003,0.004,0.006,0.007,0.01,0.01
				l0.102,0.095l3.73,3.412c0.201,0.186,0.485,0.249,0.747,0.169l0.24-0.074l8.777-2.712l0.159-0.049l0.082-0.024
				c0.04-0.013,0.073-0.035,0.099-0.061c0.037-0.039,0.06-0.089,0.066-0.142v-0.013h-0.001c0.002-0.064-0.021-0.131-0.074-0.181
				l-4.06-3.715c-0.061-0.056-0.148-0.075-0.227-0.051l-0.157,0.048l-0.002,0.002l-9.15,2.825l-0.003,0.001l-0.237,0.074
				c-0.004,0.001-0.007,0.002-0.01,0.004C234.597,304.517,234.541,304.613,234.545,304.709z"/>
			<path style="fill:#3D72BD;" d="M221.129,308.821c0.002,0.055,0.023,0.108,0.066,0.153c0.003,0.004,0.006,0.007,0.011,0.01
				l0.103,0.095l3.729,3.412c0.201,0.186,0.485,0.249,0.747,0.169l0.24-0.074l8.777-2.712l0.159-0.049l0.082-0.024
				c0.04-0.013,0.074-0.035,0.099-0.062c0.037-0.039,0.06-0.089,0.065-0.142v-0.013h-0.001c0.002-0.064-0.021-0.131-0.075-0.182
				l-4.059-3.714c-0.062-0.056-0.147-0.075-0.228-0.051l-0.157,0.048l-0.003,0.002l-9.15,2.825l-0.003,0.001l-0.237,0.073
				c-0.004,0.002-0.007,0.003-0.01,0.005C221.182,308.629,221.125,308.725,221.129,308.821z"/>
			<path style="fill:#3D72BD;" d="M207.714,312.934c0.002,0.055,0.023,0.108,0.066,0.153c0.003,0.004,0.006,0.007,0.01,0.01
				l0.103,0.095l3.729,3.412c0.201,0.186,0.486,0.249,0.747,0.169l0.241-0.075l8.777-2.711l0.159-0.049l0.082-0.024
				c0.04-0.013,0.074-0.035,0.099-0.061c0.037-0.039,0.059-0.089,0.065-0.142v-0.013h0c0.002-0.064-0.021-0.131-0.075-0.182
				l-4.059-3.714c-0.062-0.056-0.147-0.075-0.228-0.052l-0.157,0.049l-0.002,0.002l-9.151,2.824l-0.003,0.002l-0.237,0.073
				c-0.004,0.001-0.007,0.003-0.01,0.005C207.766,312.741,207.71,312.837,207.714,312.934z"/>
			<path style="fill:#3D72BD;" d="M194.299,317.046c0.002,0.055,0.023,0.108,0.066,0.153c0.003,0.004,0.006,0.007,0.01,0.01
				l0.102,0.094l3.73,3.413c0.201,0.186,0.486,0.248,0.747,0.169l0.241-0.075l8.777-2.711l0.159-0.049l0.081-0.024
				c0.04-0.013,0.074-0.035,0.1-0.063c0.037-0.038,0.059-0.088,0.065-0.141v-0.013h0c0.002-0.065-0.021-0.131-0.075-0.182
				l-4.059-3.714c-0.061-0.056-0.147-0.075-0.227-0.052l-0.157,0.049l-0.002,0.002l-9.15,2.824l-0.004,0.002l-0.236,0.073
				c-0.004,0-0.008,0.002-0.011,0.004C194.351,316.853,194.295,316.949,194.299,317.046z"/>
			<path style="fill:#3D72BD;" d="M180.883,321.158c0.002,0.055,0.023,0.108,0.066,0.153c0.003,0.004,0.006,0.007,0.01,0.01
				l0.103,0.094l3.729,3.413c0.201,0.186,0.486,0.248,0.747,0.168l0.241-0.074l8.777-2.711l0.159-0.049l0.082-0.024
				c0.04-0.013,0.074-0.035,0.1-0.063c0.037-0.038,0.059-0.088,0.065-0.141v-0.013h-0.001c0.002-0.065-0.021-0.131-0.075-0.182
				l-4.059-3.714c-0.062-0.057-0.148-0.075-0.228-0.052l-0.157,0.049l-0.002,0.001l-9.15,2.825l-0.003,0.002l-0.237,0.073
				c-0.004,0-0.007,0.002-0.01,0.004C180.936,320.966,180.879,321.061,180.883,321.158z"/>
			<path style="fill:#3D72BD;" d="M269.706,304.13c0.003,0.054,0.023,0.108,0.066,0.153c0.003,0.004,0.006,0.007,0.01,0.01
				l0.103,0.094l3.729,3.413c0.201,0.186,0.486,0.249,0.747,0.169l0.24-0.074l8.777-2.711l0.158-0.05l0.082-0.024
				c0.04-0.014,0.073-0.035,0.1-0.061c0.036-0.039,0.06-0.09,0.064-0.142v-0.014l0,0c0.002-0.064-0.022-0.13-0.076-0.18
				l-4.059-3.715c-0.061-0.056-0.146-0.075-0.227-0.051l-0.157,0.048l-0.002,0.002l-9.15,2.825l-0.005,0.001l-0.236,0.073
				c-0.004,0.001-0.007,0.002-0.011,0.004C269.758,303.938,269.702,304.033,269.706,304.13z"/>
			<path style="fill:#3D72BD;" d="M256.29,308.242c0.003,0.054,0.024,0.108,0.066,0.153c0.003,0.004,0.006,0.007,0.01,0.01
				l0.104,0.094l3.728,3.413c0.201,0.186,0.486,0.249,0.747,0.169l0.241-0.075l8.776-2.711l0.159-0.049l0.082-0.024
				c0.039-0.014,0.073-0.035,0.099-0.062c0.037-0.039,0.06-0.09,0.065-0.142v-0.014h-0.001c0.002-0.064-0.021-0.13-0.074-0.181
				l-4.06-3.714c-0.062-0.056-0.147-0.075-0.227-0.051l-0.158,0.048l-0.002,0.002l-9.15,2.825l-0.004,0.001l-0.236,0.073
				c-0.004,0.001-0.007,0.002-0.011,0.004C256.343,308.05,256.286,308.146,256.29,308.242z"/>
			<path style="fill:#3D72BD;" d="M283.121,300.018c0.003,0.055,0.023,0.108,0.066,0.153c0.003,0.004,0.006,0.007,0.01,0.01
				l0.103,0.094l3.729,3.413c0.201,0.185,0.485,0.249,0.747,0.169l0.24-0.074l8.777-2.711l0.158-0.05l0.083-0.024
				c0.039-0.014,0.073-0.035,0.099-0.062c0.037-0.039,0.06-0.09,0.064-0.142v-0.013l0,0c0.002-0.065-0.02-0.131-0.075-0.181
				l-4.059-3.714c-0.062-0.057-0.147-0.076-0.228-0.052l-0.157,0.048l-0.002,0.002l-9.15,2.825l-0.004,0.001l-0.237,0.073
				c-0.004,0.001-0.007,0.002-0.011,0.004C283.174,299.825,283.117,299.921,283.121,300.018z"/>
			<path style="fill:#3D72BD;" d="M296.536,295.906c0.003,0.054,0.024,0.108,0.066,0.152c0.003,0.004,0.007,0.007,0.011,0.011
				l0.103,0.093l3.729,3.413c0.2,0.186,0.484,0.249,0.746,0.169l0.241-0.074l8.777-2.711l0.158-0.05l0.082-0.024
				c0.04-0.014,0.073-0.035,0.099-0.062c0.037-0.039,0.06-0.089,0.064-0.141v-0.013l0,0c0.002-0.065-0.021-0.131-0.075-0.182
				l-4.059-3.714c-0.061-0.057-0.147-0.075-0.227-0.052l-0.157,0.048l-0.002,0.002l-9.151,2.825l-0.004,0.001l-0.236,0.073
				c-0.004,0.001-0.007,0.003-0.011,0.004C296.589,295.713,296.532,295.809,296.536,295.906z"/>
			<path style="fill:#3D72BD;" d="M309.952,291.794c0.003,0.054,0.023,0.108,0.065,0.152c0.004,0.004,0.007,0.007,0.011,0.011
				l0.103,0.093l3.729,3.413c0.201,0.186,0.485,0.249,0.747,0.169l0.24-0.074l8.777-2.711l0.158-0.05l0.082-0.024
				c0.04-0.013,0.073-0.034,0.1-0.062c0.036-0.039,0.06-0.089,0.065-0.141v-0.013l0,0c0.002-0.065-0.022-0.131-0.075-0.182
				l-4.06-3.714c-0.06-0.057-0.147-0.075-0.227-0.052l-0.157,0.049l-0.002,0.001l-9.15,2.825l-0.004,0.002l-0.237,0.072
				c-0.004,0.001-0.007,0.003-0.011,0.004C310.005,291.601,309.948,291.697,309.952,291.794z"/>
			<path style="fill:#3D72BD;" d="M336.783,283.569c0.002,0.055,0.023,0.108,0.065,0.152c0.005,0.004,0.008,0.008,0.012,0.011
				l0.102,0.094l3.73,3.412c0.201,0.185,0.485,0.249,0.746,0.169l0.241-0.074l8.777-2.711l0.158-0.049l0.081-0.024
				c0.041-0.013,0.074-0.035,0.1-0.063c0.037-0.039,0.06-0.089,0.064-0.141v-0.013l0,0c0.002-0.065-0.02-0.131-0.075-0.182
				l-4.059-3.714c-0.061-0.057-0.147-0.075-0.228-0.052l-0.156,0.049l-0.003,0.001l-9.151,2.825l-0.003,0.002l-0.236,0.072
				c-0.004,0.001-0.008,0.003-0.011,0.004C336.835,283.377,336.779,283.473,336.783,283.569z"/>
			<path style="fill:#3D72BD;" d="M242.875,312.353c0.002,0.055,0.023,0.109,0.065,0.154c0.003,0.004,0.006,0.007,0.01,0.01
				l0.103,0.094l3.73,3.413c0.201,0.186,0.485,0.249,0.747,0.169l0.24-0.076l8.777-2.71l0.158-0.049l0.083-0.024
				c0.039-0.014,0.073-0.035,0.099-0.062c0.036-0.039,0.06-0.09,0.065-0.142v-0.014h-0.001c0.002-0.063-0.021-0.13-0.074-0.181
				l-4.06-3.714c-0.062-0.056-0.148-0.076-0.228-0.052l-0.157,0.049l-0.002,0.002l-9.151,2.824l-0.003,0.002l-0.237,0.073
				c-0.004,0.001-0.007,0.002-0.011,0.004C242.928,312.162,242.872,312.258,242.875,312.353z"/>
			<path style="fill:#3D72BD;" d="M229.46,316.466c0.002,0.055,0.023,0.109,0.065,0.154c0.003,0.004,0.006,0.007,0.011,0.01
				l0.103,0.094l3.73,3.413c0.201,0.186,0.485,0.249,0.747,0.168l0.24-0.075l8.777-2.71l0.159-0.049l0.082-0.025
				c0.04-0.013,0.073-0.034,0.099-0.062c0.037-0.038,0.06-0.089,0.065-0.141v-0.014l0,0c0.001-0.064-0.021-0.13-0.075-0.181
				l-4.059-3.714c-0.061-0.056-0.147-0.076-0.227-0.052l-0.158,0.049l-0.002,0.002l-9.15,2.824l-0.003,0.002l-0.237,0.073
				c-0.004,0-0.007,0.002-0.01,0.004C229.512,316.274,229.456,316.37,229.46,316.466z"/>
			<path style="fill:#3D72BD;" d="M216.045,320.578c0.003,0.055,0.023,0.109,0.066,0.154c0.003,0.004,0.007,0.007,0.011,0.01
				l0.102,0.094l3.73,3.413c0.201,0.185,0.485,0.248,0.747,0.168l0.24-0.075l8.777-2.71l0.159-0.049l0.082-0.025
				c0.04-0.013,0.074-0.034,0.099-0.061c0.037-0.038,0.06-0.089,0.065-0.141v-0.014l0,0c0.001-0.064-0.021-0.131-0.075-0.181
				l-4.059-3.714c-0.062-0.057-0.148-0.076-0.228-0.052l-0.157,0.048l-0.002,0.002l-9.151,2.825l-0.003,0.002l-0.237,0.073
				c-0.004,0-0.007,0.002-0.01,0.004C216.097,320.387,216.04,320.482,216.045,320.578z"/>
			<path style="fill:#3D72BD;" d="M216.714,325.459c-0.017,0.066-0.033,0.116-0.066,0.149c-0.033,0.033-0.066,0.049-0.099,0.065
				l-0.083,0.018l-0.165,0.049l-22.184,6.827l-0.248,0.066c-0.265,0.082-0.546,0.017-0.745-0.165l-3.735-3.405l-0.1-0.1
				c0,0,0,0-0.016,0c-0.033-0.05-0.05-0.1-0.066-0.165c0-0.099,0.066-0.182,0.166-0.231l0.248-0.066l22.564-6.943l0.165-0.049
				c0.082-0.033,0.165,0,0.214,0.049l4.066,3.721C216.681,325.328,216.714,325.394,216.714,325.459z"/>
			<path style="fill:#3D72BD;" d="M304.867,303.55c0.003,0.055,0.023,0.109,0.065,0.153c0.004,0.004,0.007,0.008,0.011,0.011
				l0.102,0.094l3.73,3.413c0.201,0.186,0.485,0.248,0.747,0.168l0.24-0.074l8.777-2.711l0.158-0.049l0.081-0.025
				c0.041-0.013,0.074-0.034,0.101-0.061c0.036-0.038,0.06-0.089,0.064-0.142v-0.013l0,0c0.002-0.065-0.021-0.131-0.075-0.18
				l-4.059-3.715c-0.061-0.056-0.148-0.076-0.227-0.051l-0.157,0.047l-0.003,0.002l-9.15,2.826l-0.003,0.001l-0.237,0.073
				c-0.004,0.001-0.007,0.002-0.011,0.004C304.92,303.357,304.863,303.454,304.867,303.55z"/>
			<path style="fill:#3D72BD;" d="M318.282,299.439c0.003,0.054,0.023,0.109,0.065,0.153c0.004,0.004,0.007,0.007,0.011,0.011
				l0.102,0.093l3.73,3.413c0.201,0.186,0.485,0.249,0.747,0.168l0.24-0.074l8.777-2.711l0.159-0.049l0.081-0.025
				c0.04-0.013,0.074-0.034,0.1-0.061c0.037-0.038,0.06-0.089,0.064-0.142v-0.012l0,0c0.002-0.065-0.02-0.131-0.075-0.181
				l-4.059-3.715c-0.061-0.056-0.147-0.075-0.228-0.051l-0.157,0.047l-0.003,0.002l-9.15,2.826l-0.003,0.001l-0.236,0.073
				c-0.004,0.001-0.008,0.002-0.011,0.004C318.335,299.246,318.278,299.342,318.282,299.439z"/>
			<path style="fill:#3D72BD;" d="M331.698,295.326c0.002,0.055,0.022,0.109,0.066,0.153c0.004,0.004,0.007,0.007,0.011,0.011
				l0.102,0.093l3.73,3.413c0.201,0.186,0.485,0.249,0.746,0.168l0.241-0.074l8.777-2.711l0.158-0.049l0.081-0.025
				c0.041-0.013,0.074-0.033,0.1-0.061c0.036-0.039,0.059-0.09,0.065-0.142v-0.013l0,0c0.002-0.065-0.022-0.131-0.076-0.181
				l-4.059-3.715c-0.061-0.056-0.147-0.075-0.228-0.051l-0.156,0.047l-0.003,0.002l-9.151,2.826l-0.003,0.002l-0.236,0.072
				c-0.004,0.001-0.008,0.003-0.011,0.004C331.75,295.134,331.694,295.229,331.698,295.326z"/>
			<path style="fill:#3D72BD;" d="M345.113,291.214c0.002,0.055,0.022,0.109,0.065,0.153c0.003,0.004,0.007,0.007,0.011,0.011
				l0.103,0.093l3.729,3.413c0.201,0.186,0.485,0.249,0.747,0.168l0.24-0.074l8.777-2.711l0.158-0.049l0.081-0.025
				c0.041-0.013,0.075-0.033,0.101-0.061c0.036-0.039,0.059-0.09,0.064-0.142v-0.013l0,0c0.002-0.065-0.021-0.131-0.075-0.181
				l-4.059-3.715c-0.061-0.056-0.148-0.075-0.228-0.051l-0.156,0.047l-0.003,0.002l-9.15,2.826l-0.003,0.002l-0.237,0.072
				c-0.004,0.001-0.008,0.003-0.011,0.004C345.166,291.022,345.109,291.118,345.113,291.214z"/>
			<path style="fill:#3D72BD;" d="M358.528,287.102c0.002,0.055,0.023,0.109,0.065,0.153c0.003,0.004,0.007,0.008,0.012,0.011
				l0.102,0.093l3.729,3.413c0.201,0.185,0.485,0.249,0.747,0.168l0.241-0.074l8.776-2.711l0.159-0.048l0.081-0.026
				c0.04-0.012,0.074-0.033,0.1-0.061c0.037-0.039,0.06-0.09,0.065-0.141v-0.014l0,0c0.002-0.065-0.021-0.131-0.075-0.181
				l-4.059-3.714c-0.061-0.057-0.147-0.076-0.228-0.052l-0.157,0.048l-0.003,0.001l-9.15,2.826l-0.003,0.002l-0.236,0.072
				c-0.004,0.001-0.008,0.003-0.011,0.004C358.58,286.91,358.524,287.006,358.528,287.102z"/>
			<path style="fill:#3D72BD;" d="M305.531,308.433c0,0.051-0.032,0.116-0.066,0.149c-0.032,0.033-0.065,0.05-0.099,0.065
				l-0.082,0.018l-0.165,0.049l-49.013,15.043l-0.249,0.083c-0.265,0.082-0.545,0.016-0.744-0.165l-3.735-3.422l-0.099-0.083
				c0-0.017,0-0.017,0-0.017c-0.05-0.049-0.065-0.099-0.065-0.149c-0.018-0.099,0.048-0.198,0.148-0.23c0,0,0,0,0.016,0l0.232-0.083
				l49.393-15.158l0.166-0.049c0.082-0.034,0.165,0,0.23,0.049l4.05,3.72C305.515,308.301,305.531,308.367,305.531,308.433z"/>
			<path style="fill:#3D72BD;" d="M237.79,324.111c0.003,0.055,0.023,0.109,0.066,0.152c0.003,0.004,0.006,0.008,0.01,0.011
				l0.103,0.095l3.73,3.412c0.201,0.185,0.485,0.248,0.747,0.168l0.24-0.074l8.777-2.711l0.158-0.049l0.083-0.024
				c0.039-0.013,0.073-0.034,0.099-0.063c0.037-0.038,0.06-0.088,0.064-0.141v-0.013l0,0c0.002-0.065-0.02-0.131-0.074-0.182
				l-4.06-3.714c-0.061-0.057-0.146-0.075-0.227-0.052l-0.158,0.049l-0.002,0.001l-9.15,2.826l-0.003,0.002l-0.237,0.072
				c-0.004,0.001-0.007,0.003-0.01,0.005C237.843,323.919,237.787,324.016,237.79,324.111z"/>
			<path style="fill:#3D72BD;" d="M224.375,328.224c0.003,0.055,0.023,0.109,0.065,0.152c0.003,0.004,0.007,0.008,0.011,0.011
				l0.103,0.095l3.73,3.412c0.201,0.185,0.485,0.248,0.747,0.168l0.24-0.074l8.777-2.711l0.158-0.049l0.082-0.024
				c0.04-0.013,0.074-0.034,0.099-0.063c0.037-0.038,0.06-0.089,0.065-0.141v-0.013h0c0.002-0.065-0.021-0.131-0.075-0.182
				l-4.059-3.714c-0.062-0.057-0.148-0.075-0.228-0.052l-0.157,0.049l-0.002,0.001l-9.151,2.826l-0.003,0.002l-0.237,0.072
				c-0.004,0.001-0.007,0.003-0.01,0.004C224.427,328.031,224.371,328.128,224.375,328.224z"/>
			<path style="fill:#3D72BD;" d="M210.96,332.336c0.002,0.055,0.023,0.109,0.066,0.152c0.003,0.004,0.006,0.008,0.01,0.011
				l0.103,0.094l3.73,3.413c0.201,0.185,0.485,0.248,0.746,0.168l0.24-0.074l8.777-2.711l0.158-0.049l0.083-0.025
				c0.04-0.012,0.073-0.033,0.099-0.062c0.037-0.038,0.059-0.089,0.064-0.141V333.1l0,0c0.001-0.065-0.021-0.131-0.075-0.182
				l-4.059-3.714c-0.062-0.057-0.147-0.075-0.227-0.052l-0.157,0.049l-0.002,0.001l-9.151,2.826l-0.003,0.002l-0.237,0.072
				c-0.004,0.001-0.007,0.003-0.011,0.004C211.012,332.144,210.956,332.24,210.96,332.336z"/>
			<path style="fill:#3D72BD;" d="M197.544,336.448c0.003,0.055,0.023,0.109,0.066,0.152c0.003,0.004,0.006,0.007,0.01,0.011
				l0.103,0.094l3.729,3.413c0.201,0.185,0.485,0.248,0.747,0.168l0.24-0.074l8.777-2.711l0.159-0.05l0.081-0.024
				c0.04-0.013,0.074-0.033,0.099-0.062c0.037-0.038,0.06-0.089,0.065-0.141v-0.013l0,0c0.001-0.065-0.021-0.131-0.075-0.182
				l-4.059-3.714c-0.062-0.057-0.147-0.075-0.227-0.052l-0.158,0.049l-0.002,0.001l-9.15,2.826l-0.003,0.002l-0.237,0.072
				c-0.004,0.001-0.007,0.003-0.011,0.004C197.597,336.255,197.54,336.353,197.544,336.448z"/>
			<path style="fill:#3D72BD;" d="M355.948,272.579v0.017c-0.016,0.05-0.032,0.1-0.065,0.132c-0.033,0.033-0.066,0.05-0.099,0.066
				l-0.083,0.016l-0.166,0.051l-13.174,4.05l-0.083,0.016l-0.148,0.05l-8.778,2.712l-0.247,0.082
				c-0.265,0.066-0.546,0.018-0.744-0.182l-3.735-3.405l-0.1-0.1c-0.05-0.049-0.066-0.099-0.066-0.165
				c-0.017-0.082,0.05-0.182,0.148-0.23c0,0,0,0,0.018,0l0.231-0.066l22.563-6.943l0.166-0.049c0.083-0.018,0.165,0,0.231,0.049
				l4.05,3.72C355.916,272.446,355.948,272.513,355.948,272.579z"/>
		</g>
		
			<path style="fill:none;stroke:#000000;stroke-width:0.5575;stroke-linecap:round;stroke-linejoin:round;stroke-miterlimit:10;" d="
			M154.155,436.697l-0.166,0.06c-0.024,0-0.047,0.013-0.071,0.013L154.155,436.697z"/>
		<path style="opacity:0.5;fill:#5C84F0;" d="M391.5,139.398v31.304c0,1.398-0.9,2.879-2.168,3.697l-41.02,12.631
			c-1.766,0.544-3.199-0.439-3.199-2.204v-31.315c0-1.422,0.924-2.903,2.204-3.709l40.983-12.619
			C390.066,136.637,391.5,137.632,391.5,139.398z"/>
		
			<text transform="matrix(1.0257 -0.2884 -0.0549 0.9985 354.0226 171.0641)" style="fill:#FFFFFF; font-family:'Baloo'; font-size:20.4953px;">{{}}</text>
		
			<text transform="matrix(1.0257 -0.2884 -0.0549 0.9985 382.1732 112.8395)" style="fill:#262240; font-family:'Baloo'; font-size:20.4953px;">&lt;/&gt;</text>
		<g>
			<text transform="matrix(1.0257 -0.2884 -0.0549 0.9985 298.8356 462.2978)"><tspan x="0" y="0" style="fill:none;stroke:#FFFFFF;stroke-miterlimit:10; font-family:'Baloo'; font-size:25.9607px; letter-spacing:1.877;">010101</tspan><tspan x="92.366" y="0" style="fill:none;stroke:#FFFFFF;stroke-miterlimit:10; font-family:'Baloo'; font-size:25.9607px; letter-spacing:2.816;">0</tspan></text>
		</g>
		<path style="fill:none;stroke:#FFFFFF;stroke-linecap:round;stroke-linejoin:round;stroke-miterlimit:10;" d="M377.025,201.565
			v31.304c0,1.398-0.9,2.879-2.168,3.696l-41.021,12.631c-1.765,0.544-3.199-0.439-3.199-2.204v-31.316
			c0-1.421,0.925-2.903,2.204-3.708l40.984-12.619C375.592,198.805,377.025,199.799,377.025,201.565z"/>
		<path style="opacity:0.75;fill:#FAE52A;" d="M373.665,198.205v31.304c0,1.398-0.899,2.879-2.168,3.697l-41.02,12.63
			c-1.766,0.545-3.199-0.438-3.199-2.204v-31.316c0-1.422,0.925-2.902,2.204-3.708l40.984-12.619
			C372.231,195.444,373.665,196.44,373.665,198.205z"/>
		
			<text transform="matrix(1.0257 -0.2884 -0.0549 0.9985 340.0759 231.3599)" style="fill:#432752; font-family:'Baloo'; font-size:20.4953px;">JS</text>
		<path style="fill:none;stroke:#26335B;stroke-linecap:round;stroke-linejoin:round;stroke-miterlimit:10;" d="M151.958,271.685
			v31.304c0,1.398-0.901,2.879-2.169,3.697l-13.376,4.111l-27.761,8.543l-13.259,4.088c-1.765,0.545-3.199-0.438-3.199-2.203
			v-31.316c0-1.422,0.924-2.903,2.204-3.709l13.377-4.111l27.607-8.507c0.036-0.013,0.084-0.024,0.119-0.024l13.258-4.087
			C150.524,268.925,151.958,269.92,151.958,271.685z"/>
		<path style="opacity:0.75;fill:#FAE52A;" d="M148.593,268.319v31.305c0,1.398-0.901,2.879-2.169,3.696l-13.377,4.111
			l-27.761,8.543l-13.258,4.088c-1.766,0.545-3.199-0.439-3.199-2.204v-31.315c0-1.422,0.924-2.902,2.204-3.709l13.377-4.111
			l27.607-8.507c0.036-0.012,0.083-0.023,0.118-0.023l13.259-4.089C147.159,265.559,148.593,266.555,148.593,268.319z"/>
		
			<text transform="matrix(1.0257 -0.2884 -0.0549 0.9985 99.3632 304.9973)" style="fill:#432752; font-family:'Baloo'; font-size:16.6298px;">HTML</text>
		<path style="fill:none;stroke:#26335B;stroke-linecap:round;stroke-linejoin:round;stroke-miterlimit:10;" d="M106.256,226.714
			v31.303c0,1.398-0.9,2.88-2.168,3.697l-13.377,4.111l-27.761,8.543l-13.259,4.088c-1.766,0.545-3.199-0.438-3.199-2.204v-31.315
			c0-1.422,0.925-2.903,2.204-3.709l13.377-4.111l27.607-8.507c0.036-0.012,0.083-0.023,0.118-0.023l13.258-4.088
			C104.823,223.954,106.256,224.949,106.256,226.714z"/>
		<path style="opacity:0.5;fill:#5C84F0;" d="M102.892,223.35v31.304c0,1.398-0.901,2.879-2.169,3.696l-13.377,4.112l-27.761,8.543
			l-13.259,4.087c-1.765,0.545-3.198-0.439-3.198-2.203v-31.316c0-1.422,0.924-2.903,2.204-3.708l13.376-4.111l27.607-8.507
			c0.036-0.012,0.083-0.024,0.119-0.024l13.258-4.087C101.457,220.588,102.892,221.584,102.892,223.35z"/>
		
			<text transform="matrix(1.0257 -0.2884 -0.0549 0.9985 53.7497 259.3371)" style="fill:#262240; font-family:'Baloo'; font-size:16.6298px;">JAVA</text>
		<path style="fill:none;stroke:#FFFFFF;stroke-linecap:round;stroke-linejoin:round;stroke-miterlimit:10;" d="M152.279,156.946
			v31.304c0,1.398-0.9,2.879-2.168,3.697l-13.377,4.111l-27.761,8.543l-13.258,4.087c-1.766,0.545-3.199-0.439-3.199-2.204v-31.316
			c0-1.422,0.924-2.903,2.204-3.709l13.377-4.111l27.607-8.507c0.035-0.012,0.083-0.023,0.119-0.023l13.258-4.088
			C150.846,154.185,152.279,155.181,152.279,156.946z"/>
		<path style="opacity:0.75;fill:#E35743;" d="M148.914,153.581v31.304c0,1.398-0.9,2.879-2.169,3.697l-13.376,4.111l-27.762,8.543
			l-13.258,4.088c-1.765,0.545-3.199-0.438-3.199-2.204v-31.316c0-1.422,0.924-2.903,2.204-3.708l13.377-4.111l27.607-8.507
			c0.036-0.012,0.083-0.024,0.119-0.024l13.259-4.087C147.48,150.82,148.914,151.815,148.914,153.581z"/>
		
			<text transform="matrix(1.0257 -0.2884 -0.0549 0.9985 103.1486 188.6197)" style="fill:#FFFFFF; font-family:'Baloo'; font-size:16.6298px;">PHP</text>
		<path style="fill:none;stroke:#26335B;stroke-linecap:round;stroke-linejoin:round;stroke-miterlimit:10;" d="M449.772,219.215
			v31.304c0,1.398-0.9,2.879-2.168,3.696l-13.378,4.112l-27.761,8.542l-13.259,4.088c-1.766,0.546-3.199-0.438-3.199-2.204v-31.315
			c0-1.422,0.924-2.903,2.203-3.709l13.378-4.112l27.606-8.507c0.036-0.012,0.083-0.023,0.119-0.023l13.259-4.088
			C448.338,216.455,449.772,217.45,449.772,219.215z"/>
		<path style="opacity:0.75;fill:#E35743;" d="M446.406,215.85v31.304c0,1.398-0.9,2.88-2.168,3.697l-13.376,4.112l-27.763,8.542
			l-13.258,4.089c-1.766,0.544-3.199-0.44-3.199-2.204v-31.316c0-1.422,0.925-2.903,2.204-3.708l13.377-4.111l27.608-8.507
			c0.035-0.012,0.083-0.024,0.118-0.024l13.259-4.088C444.974,213.09,446.406,214.085,446.406,215.85z"/>
		
			<text transform="matrix(1.0257 -0.2884 -0.0549 0.9985 400.6391 250.8893)" style="fill:#FFFFFF; font-family:'Baloo'; font-size:16.6298px;">CSS</text>
		<path style="opacity:0.5;fill:#273481;" d="M456.119,304.179l-5.23,0.28c-0.058,0.001-0.109,0.007-0.168,0.014
			c-0.714-3.617-2.206-6.78-4.31-9.346c0.038-0.054,0.071-0.107,0.103-0.159l3.018-5.116c0.495-0.845,0.411-1.804-0.219-2.283
			l-3.339-2.539c-0.625-0.476-1.602-0.325-2.329,0.345l-4.388,4.061c-0.052,0.044-0.096,0.088-0.142,0.137
			c-3.068-1.363-6.588-2.013-10.377-1.82c-0.007-0.057-0.02-0.104-0.025-0.155l-0.979-5.002c-0.161-0.83-0.913-1.281-1.801-1.068
			l-4.723,1.131c-0.881,0.211-1.634,1.02-1.802,1.93l-0.972,5.463c-0.013,0.062-0.02,0.113-0.025,0.173
			c-3.789,1.621-7.309,3.956-10.378,6.788c-0.044-0.028-0.089-0.049-0.141-0.068l-4.389-1.962c-0.727-0.321-1.704-0.004-2.328,0.77
			l-3.339,4.139c-0.631,0.781-0.714,1.779-0.219,2.388l3.011,3.667c0.032,0.037,0.064,0.075,0.104,0.11
			c-2.099,3.577-3.591,7.447-4.305,11.414c-0.058,0.021-0.116,0.04-0.168,0.065l-5.23,2.224c-0.868,0.375-1.498,1.278-1.498,2.16
			v4.722c0,0.888,0.63,1.49,1.498,1.443l5.23-0.274c0.052-0.006,0.11-0.007,0.168-0.014c0.714,3.618,2.206,6.78,4.297,9.354
			c-0.031,0.054-0.064,0.099-0.096,0.158l-3.011,5.109c-0.495,0.845-0.412,1.802,0.212,2.277l3.34,2.54
			c0.63,0.479,1.607,0.329,2.334-0.34l4.389-4.061c0.045-0.044,0.089-0.087,0.135-0.136c3.075,1.367,6.589,2.02,10.384,1.825
			c0.006,0.049,0.013,0.105,0.025,0.154l0.972,4.998c0.168,0.829,0.921,1.279,1.802,1.068l4.723-1.13
			c0.888-0.213,1.64-1.023,1.801-1.931l0.979-5.464c0.006-0.054,0.018-0.115,0.025-0.168c3.796-1.629,7.309-3.955,10.384-6.795
			c0.039,0.022,0.083,0.051,0.129,0.065l4.393,1.966c0.727,0.321,1.704,0.004,2.335-0.777l3.339-4.138
			c0.624-0.774,0.708-1.772,0.213-2.381l-3.011-3.667c-0.032-0.044-0.064-0.081-0.102-0.117c2.097-3.57,3.589-7.447,4.303-11.406
			c0.059-0.022,0.11-0.046,0.162-0.064l5.236-2.232c0.868-0.369,1.499-1.273,1.499-2.16v-4.723
			C457.618,304.739,456.987,304.139,456.119,304.179z M432.425,330.173c-1.159,0.907-2.387,1.717-3.681,2.398
			c-1.64,0.876-3.377,1.549-5.172,1.979c-1.796,0.43-3.525,0.586-5.167,0.496c-1.293-0.064-2.521-0.284-3.68-0.637
			c-3.081-0.955-5.622-2.895-7.302-5.568c-0.638-1.005-1.151-2.11-1.524-3.309c-0.482-1.518-0.74-3.193-0.74-4.988
			c0-1.796,0.258-3.595,0.74-5.351c0.373-1.383,0.887-2.728,1.524-4.038c1.686-3.479,4.227-6.635,7.302-9.063
			c1.158-0.908,2.387-1.716,3.68-2.398c1.642-0.876,3.371-1.547,5.167-1.977c1.795-0.431,3.532-0.588,5.172-0.499
			c1.294,0.064,2.522,0.285,3.681,0.639c3.075,0.955,5.616,2.889,7.309,5.559c0.63,1.008,1.145,2.113,1.519,3.317
			c0.482,1.525,0.739,3.2,0.739,4.996c0,1.794-0.257,3.593-0.739,5.343c-0.374,1.382-0.882,2.732-1.519,4.043
			C438.041,324.596,435.5,327.745,432.425,330.173z"/>
		<path style="opacity:0.75;fill:#E35743;" d="M489.326,267.711l-3.194,0.172c-0.034,0-0.066,0.004-0.102,0.009
			c-0.436-2.21-1.348-4.141-2.632-5.707c0.023-0.033,0.043-0.065,0.063-0.098l1.843-3.124c0.303-0.518,0.251-1.102-0.134-1.395
			l-2.039-1.551c-0.381-0.291-0.979-0.198-1.422,0.211l-2.68,2.48c-0.031,0.027-0.06,0.053-0.086,0.083
			c-1.875-0.831-4.023-1.228-6.338-1.111c-0.004-0.034-0.012-0.063-0.016-0.095l-0.598-3.055c-0.098-0.507-0.558-0.782-1.099-0.652
			l-2.885,0.691c-0.537,0.129-0.997,0.624-1.099,1.179l-0.594,3.336c-0.008,0.037-0.012,0.069-0.016,0.105
			c-2.314,0.989-4.463,2.416-6.337,4.146c-0.028-0.018-0.056-0.03-0.087-0.043l-2.68-1.197c-0.443-0.196-1.041-0.002-1.422,0.471
			l-2.039,2.526c-0.385,0.478-0.437,1.086-0.133,1.458l1.838,2.24c0.02,0.022,0.04,0.045,0.063,0.067
			c-1.28,2.184-2.191,4.547-2.628,6.97c-0.035,0.012-0.071,0.024-0.102,0.039l-3.194,1.358c-0.531,0.229-0.916,0.781-0.916,1.319
			v2.884c0,0.542,0.385,0.909,0.916,0.881l3.194-0.168c0.03-0.003,0.066-0.004,0.102-0.009c0.436,2.21,1.348,4.141,2.624,5.713
			c-0.019,0.033-0.039,0.06-0.059,0.097l-1.838,3.12c-0.304,0.517-0.252,1.101,0.129,1.391l2.039,1.551
			c0.385,0.294,0.982,0.201,1.426-0.208l2.68-2.479c0.027-0.027,0.055-0.053,0.083-0.083c1.878,0.835,4.022,1.232,6.341,1.115
			c0.004,0.029,0.008,0.064,0.016,0.094l0.594,3.053c0.102,0.505,0.561,0.78,1.099,0.651l2.885-0.69
			c0.541-0.13,1.001-0.625,1.099-1.179l0.598-3.337c0.004-0.032,0.012-0.069,0.016-0.102c2.318-0.994,4.463-2.416,6.342-4.15
			c0.022,0.015,0.051,0.031,0.078,0.041l2.684,1.2c0.443,0.196,1.041,0.002,1.426-0.476l2.039-2.526
			c0.381-0.473,0.433-1.081,0.13-1.454l-1.839-2.238c-0.02-0.026-0.04-0.049-0.063-0.072c1.28-2.18,2.191-4.547,2.628-6.966
			c0.035-0.012,0.067-0.027,0.098-0.038l3.198-1.363c0.531-0.225,0.916-0.777,0.916-1.319v-2.883
			C490.242,268.054,489.857,267.686,489.326,267.711z M474.856,283.585c-0.707,0.555-1.456,1.048-2.247,1.465
			c-1.001,0.535-2.061,0.946-3.158,1.208c-1.097,0.262-2.153,0.357-3.154,0.304c-0.79-0.04-1.54-0.175-2.248-0.39
			c-1.881-0.583-3.434-1.768-4.458-3.4c-0.39-0.613-0.704-1.289-0.932-2.021c-0.295-0.927-0.451-1.95-0.451-3.046
			c0-1.097,0.156-2.195,0.451-3.267c0.228-0.845,0.542-1.666,0.932-2.467c1.028-2.124,2.581-4.052,4.458-5.534
			c0.708-0.555,1.458-1.048,2.248-1.465c1.001-0.535,2.058-0.944,3.154-1.207c1.097-0.262,2.157-0.358,3.158-0.305
			c0.791,0.04,1.54,0.175,2.247,0.391c1.878,0.583,3.431,1.764,4.463,3.395c0.386,0.615,0.699,1.29,0.928,2.025
			c0.295,0.931,0.452,1.954,0.452,3.05c0,1.097-0.157,2.195-0.452,3.264c-0.228,0.844-0.538,1.669-0.928,2.469
			C478.287,280.179,476.734,282.103,474.856,283.585z"/>
		<path style="opacity:0.5;fill:#FFFFFF;" d="M215.409,365.076l-5.23,0.279c-0.058,0.002-0.109,0.008-0.167,0.016
			c-0.714-3.619-2.207-6.781-4.311-9.346c0.039-0.055,0.071-0.107,0.103-0.16l3.017-5.116c0.496-0.846,0.412-1.804-0.219-2.283
			l-3.339-2.54c-0.624-0.475-1.602-0.324-2.329,0.346l-4.388,4.06c-0.052,0.045-0.097,0.087-0.142,0.137
			c-3.069-1.363-6.588-2.014-10.378-1.82c-0.006-0.057-0.019-0.105-0.026-0.154l-0.978-5.003c-0.161-0.83-0.913-1.28-1.801-1.068
			l-4.723,1.131c-0.881,0.21-1.634,1.021-1.801,1.93l-0.971,5.463c-0.013,0.062-0.02,0.114-0.026,0.173
			c-3.789,1.622-7.309,3.956-10.377,6.788c-0.045-0.028-0.09-0.049-0.142-0.068l-4.387-1.961c-0.727-0.322-1.705-0.004-2.329,0.77
			l-3.339,4.138c-0.63,0.781-0.714,1.778-0.218,2.388l3.01,3.667c0.032,0.037,0.064,0.075,0.103,0.11
			c-2.097,3.578-3.59,7.447-4.304,11.414c-0.058,0.02-0.116,0.041-0.168,0.065l-5.23,2.224c-0.868,0.375-1.499,1.278-1.499,2.16
			v4.723c0,0.887,0.631,1.489,1.499,1.441l5.23-0.273c0.051-0.006,0.109-0.007,0.168-0.015c0.714,3.619,2.206,6.78,4.298,9.355
			c-0.033,0.053-0.065,0.1-0.097,0.158l-3.01,5.108c-0.496,0.846-0.412,1.804,0.212,2.278l3.339,2.54
			c0.631,0.479,1.609,0.329,2.336-0.34l4.387-4.062c0.045-0.043,0.09-0.086,0.135-0.135c3.075,1.367,6.588,2.02,10.384,1.825
			c0.006,0.05,0.013,0.106,0.026,0.154l0.971,4.998c0.167,0.829,0.92,1.278,1.801,1.068l4.723-1.131
			c0.888-0.212,1.64-1.023,1.801-1.93l0.978-5.465c0.007-0.053,0.019-0.114,0.026-0.166c3.796-1.63,7.309-3.956,10.384-6.797
			c0.039,0.023,0.083,0.052,0.129,0.066l4.394,1.966c0.727,0.321,1.705,0.003,2.335-0.778l3.338-4.138
			c0.624-0.773,0.708-1.772,0.212-2.379l-3.011-3.668c-0.032-0.044-0.064-0.081-0.103-0.117c2.098-3.57,3.59-7.446,4.305-11.407
			c0.058-0.02,0.109-0.045,0.16-0.063l5.237-2.231c0.869-0.368,1.499-1.272,1.499-2.16v-4.723
			C216.908,365.638,216.277,365.035,215.409,365.076z M191.714,391.07c-1.158,0.907-2.387,1.717-3.68,2.399
			c-1.641,0.875-3.378,1.548-5.172,1.978c-1.795,0.43-3.525,0.586-5.166,0.496c-1.293-0.063-2.522-0.284-3.68-0.638
			c-3.081-0.954-5.623-2.895-7.302-5.567c-0.637-1.005-1.151-2.11-1.525-3.308c-0.482-1.52-0.74-3.194-0.74-4.99
			c0-1.795,0.257-3.593,0.74-5.35c0.374-1.382,0.888-2.727,1.525-4.037c1.686-3.48,4.227-6.636,7.302-9.063
			c1.158-0.908,2.387-1.717,3.68-2.4c1.641-0.874,3.371-1.546,5.166-1.976c1.795-0.43,3.532-0.589,5.172-0.498
			c1.293,0.064,2.522,0.284,3.68,0.638c3.075,0.956,5.617,2.889,7.308,5.56c0.631,1.007,1.146,2.112,1.519,3.316
			c0.483,1.525,0.74,3.2,0.74,4.996c0,1.795-0.257,3.593-0.74,5.342c-0.373,1.383-0.881,2.734-1.519,4.044
			C197.331,385.492,194.79,388.642,191.714,391.07z"/>
		<path style="opacity:0.5;fill:#FFFFFF;" d="M159.833,65.769l-5.23,0.279c-0.058,0.002-0.109,0.008-0.167,0.016
			c-0.714-3.619-2.207-6.781-4.311-9.346c0.039-0.055,0.071-0.107,0.103-0.16l3.017-5.116c0.496-0.846,0.412-1.804-0.219-2.283
			l-3.339-2.54c-0.624-0.475-1.602-0.324-2.329,0.346l-4.388,4.06c-0.052,0.045-0.097,0.087-0.142,0.137
			c-3.069-1.363-6.588-2.014-10.378-1.82c-0.006-0.057-0.019-0.105-0.026-0.154l-0.978-5.003c-0.161-0.83-0.913-1.28-1.801-1.068
			l-4.723,1.131c-0.881,0.21-1.634,1.021-1.801,1.93l-0.971,5.463c-0.013,0.062-0.02,0.114-0.026,0.173
			c-3.79,1.622-7.309,3.956-10.378,6.788c-0.045-0.028-0.09-0.049-0.142-0.068l-4.387-1.961c-0.727-0.322-1.705-0.004-2.329,0.77
			l-3.339,4.138c-0.63,0.781-0.714,1.778-0.218,2.388l3.01,3.667c0.032,0.037,0.064,0.075,0.103,0.11
			c-2.097,3.578-3.59,7.447-4.304,11.414c-0.058,0.02-0.116,0.041-0.167,0.065l-5.231,2.224c-0.868,0.375-1.499,1.278-1.499,2.16
			v4.723c0,0.887,0.631,1.489,1.499,1.441l5.231-0.273c0.051-0.006,0.109-0.007,0.167-0.015c0.714,3.619,2.206,6.78,4.298,9.355
			c-0.033,0.053-0.065,0.1-0.097,0.158l-3.01,5.108c-0.496,0.846-0.412,1.804,0.212,2.278l3.339,2.54
			c0.631,0.479,1.609,0.329,2.336-0.34l4.387-4.062c0.045-0.043,0.09-0.086,0.135-0.135c3.075,1.367,6.588,2.02,10.384,1.825
			c0.006,0.05,0.013,0.106,0.026,0.154l0.971,4.998c0.167,0.829,0.92,1.278,1.801,1.068l4.723-1.131
			c0.888-0.212,1.64-1.024,1.801-1.93l0.978-5.465c0.007-0.053,0.02-0.114,0.026-0.166c3.796-1.63,7.309-3.956,10.384-6.797
			c0.039,0.023,0.083,0.052,0.129,0.066l4.394,1.966c0.727,0.321,1.705,0.003,2.335-0.778l3.338-4.138
			c0.625-0.773,0.709-1.771,0.212-2.379l-3.011-3.668c-0.032-0.044-0.064-0.081-0.103-0.117c2.098-3.57,3.59-7.446,4.305-11.407
			c0.058-0.021,0.109-0.045,0.16-0.063l5.237-2.231c0.869-0.368,1.499-1.273,1.499-2.16v-4.723
			C161.332,66.33,160.702,65.728,159.833,65.769z M136.139,91.763c-1.158,0.907-2.387,1.717-3.68,2.399
			c-1.641,0.875-3.378,1.548-5.172,1.978c-1.795,0.43-3.525,0.586-5.166,0.496c-1.293-0.063-2.522-0.284-3.68-0.638
			c-3.081-0.954-5.623-2.895-7.302-5.567c-0.637-1.005-1.151-2.11-1.525-3.308c-0.482-1.52-0.74-3.194-0.74-4.99
			c0-1.795,0.257-3.593,0.74-5.35c0.373-1.382,0.888-2.728,1.525-4.037c1.686-3.479,4.227-6.636,7.302-9.063
			c1.158-0.908,2.387-1.717,3.68-2.4c1.641-0.874,3.371-1.546,5.166-1.976c1.795-0.43,3.532-0.589,5.172-0.498
			c1.293,0.063,2.522,0.284,3.68,0.638c3.075,0.956,5.617,2.889,7.308,5.559c0.631,1.007,1.145,2.112,1.518,3.316
			c0.483,1.525,0.74,3.2,0.74,4.996c0,1.795-0.257,3.593-0.74,5.342c-0.373,1.383-0.881,2.734-1.518,4.044
			C141.756,86.185,139.214,89.334,136.139,91.763z"/>
		<path style="opacity:0.75;fill:#E35743;" d="M239.174,408.444l-3.194,0.172c-0.035,0.001-0.067,0.004-0.102,0.009
			c-0.436-2.21-1.347-4.141-2.632-5.708c0.023-0.032,0.043-0.064,0.063-0.097l1.842-3.125c0.302-0.516,0.251-1.101-0.134-1.394
			l-2.039-1.551c-0.381-0.29-0.978-0.198-1.422,0.211l-2.679,2.479c-0.032,0.027-0.059,0.053-0.087,0.083
			c-1.874-0.831-4.022-1.229-6.337-1.112c-0.004-0.033-0.012-0.063-0.016-0.094l-0.597-3.056c-0.098-0.506-0.558-0.781-1.1-0.651
			l-2.883,0.69c-0.539,0.129-0.998,0.624-1.1,1.179l-0.593,3.336c-0.008,0.037-0.012,0.069-0.016,0.105
			c-2.314,0.989-4.463,2.416-6.337,4.146c-0.027-0.018-0.055-0.03-0.086-0.043l-2.68-1.197c-0.443-0.196-1.04-0.002-1.422,0.471
			l-2.039,2.526c-0.385,0.478-0.436,1.086-0.133,1.459l1.838,2.239c0.02,0.022,0.04,0.045,0.063,0.067
			c-1.281,2.184-2.192,4.547-2.628,6.97c-0.036,0.012-0.071,0.024-0.102,0.039l-3.194,1.358c-0.53,0.229-0.915,0.781-0.915,1.319
			v2.884c0,0.542,0.385,0.909,0.915,0.881l3.194-0.168c0.032-0.003,0.067-0.004,0.102-0.009c0.436,2.21,1.347,4.142,2.624,5.713
			c-0.019,0.032-0.039,0.061-0.059,0.097l-1.838,3.119c-0.303,0.517-0.251,1.102,0.129,1.392l2.039,1.551
			c0.385,0.294,0.982,0.201,1.426-0.208l2.68-2.479c0.027-0.027,0.055-0.053,0.083-0.083c1.878,0.835,4.023,1.232,6.341,1.115
			c0.004,0.029,0.008,0.064,0.016,0.094l0.593,3.052c0.102,0.506,0.561,0.781,1.1,0.652l2.883-0.69
			c0.542-0.13,1.002-0.625,1.1-1.179l0.597-3.337c0.004-0.032,0.012-0.069,0.016-0.102c2.318-0.994,4.463-2.416,6.341-4.149
			c0.024,0.014,0.051,0.03,0.079,0.04l2.683,1.2c0.444,0.196,1.042,0.002,1.426-0.476l2.039-2.526
			c0.381-0.473,0.432-1.081,0.13-1.453l-1.839-2.239c-0.019-0.027-0.039-0.049-0.062-0.071c1.281-2.181,2.192-4.548,2.628-6.967
			c0.035-0.012,0.067-0.027,0.098-0.038l3.198-1.363c0.53-0.225,0.915-0.777,0.915-1.319v-2.883
			C240.09,408.787,239.705,408.42,239.174,408.444z M224.705,424.318c-0.707,0.555-1.458,1.048-2.247,1.465
			c-1.002,0.535-2.063,0.946-3.159,1.208c-1.096,0.262-2.153,0.357-3.155,0.304c-0.79-0.04-1.54-0.175-2.247-0.39
			c-1.882-0.583-3.434-1.768-4.459-3.4c-0.389-0.614-0.703-1.289-0.931-2.021c-0.294-0.927-0.452-1.95-0.452-3.046
			c0-1.097,0.158-2.195,0.452-3.267c0.228-0.845,0.542-1.666,0.931-2.467c1.029-2.124,2.581-4.052,4.459-5.534
			c0.707-0.555,1.457-1.048,2.247-1.465c1.002-0.535,2.059-0.944,3.155-1.207c1.096-0.262,2.157-0.358,3.159-0.305
			c0.789,0.04,1.54,0.175,2.247,0.39c1.878,0.584,3.429,1.765,4.463,3.395c0.385,0.614,0.699,1.29,0.927,2.025
			c0.295,0.931,0.452,1.954,0.452,3.05c0,1.097-0.157,2.195-0.452,3.264c-0.228,0.844-0.538,1.668-0.927,2.469
			C228.134,420.912,226.583,422.836,224.705,424.318z"/>
		<text transform="matrix(1.0257 -0.2884 -0.0549 0.9985 11.7017 375.0246)" style="opacity:0.7;"><tspan x="0" y="0" style="fill:#C2E6E0; font-family:'Baloo'; font-size:23.6419px; letter-spacing:1.877;">01</tspan><tspan x="28.038" y="0" style="fill:none;stroke:#C2E6E0;stroke-miterlimit:10; font-family:'Baloo'; font-size:23.6419px; letter-spacing:1.877;">010</tspan><tspan x="70.096" y="0" style="fill:#C2E6E0; font-family:'Baloo'; font-size:23.6419px; letter-spacing:1.877;">101</tspan><tspan x="112.154" y="0" style="fill:#C2E6E0; font-family:'Baloo'; font-size:23.6419px; letter-spacing:2.816;">0</tspan></text>
	</g>
</g>
<g id="OBJECTS">
</g>
</svg>
